<svg width="616" height="392" viewBox="0 0 616 392" fill="none" xmlns="http://www.w3.org/2000/svg">
<rect x="2" y="2" width="612" height="388" rx="27" fill="#FFF9FA"/>
<path d="M4 22C4 10.9543 12.9543 2 24 2H594C605.046 2 614 10.9543 614 22V50H4V22Z" fill="white"/>
<g clip-path="url(#clip0_117_395)">
<path d="M428 116C428 111.582 431.582 108 436 108H606C610.418 108 614 111.582 614 116V370C614 381.046 605.046 390 594 390H428V116Z" fill="white"/>
<path d="M428.5 116C428.5 111.858 431.858 108.5 436 108.5H606C610.142 108.5 613.5 111.858 613.5 116V370C613.5 380.77 604.77 389.5 594 389.5H428.5V116Z" stroke="#5E41A7" stroke-opacity="0.6"/>
<path d="M428 108H614V134H428V108Z" fill="#5E41A7"/>
<path d="M440.92 125.07C440.273 125.07 439.677 124.92 439.13 124.62C438.59 124.313 438.16 123.89 437.84 123.35C437.527 122.803 437.37 122.19 437.37 121.51C437.37 120.83 437.527 120.22 437.84 119.68C438.16 119.14 438.59 118.72 439.13 118.42C439.677 118.113 440.273 117.96 440.92 117.96C441.573 117.96 442.17 118.113 442.71 118.42C443.257 118.72 443.687 119.14 444 119.68C444.313 120.22 444.47 120.83 444.47 121.51C444.47 122.19 444.313 122.803 444 123.35C443.687 123.89 443.257 124.313 442.71 124.62C442.17 124.92 441.573 125.07 440.92 125.07ZM440.92 124.08C441.38 124.08 441.79 123.977 442.15 123.77C442.51 123.557 442.79 123.257 442.99 122.87C443.197 122.477 443.3 122.023 443.3 121.51C443.3 120.997 443.197 120.547 442.99 120.16C442.79 119.773 442.51 119.477 442.15 119.27C441.79 119.063 441.38 118.96 440.92 118.96C440.46 118.96 440.05 119.063 439.69 119.27C439.33 119.477 439.047 119.773 438.84 120.16C438.64 120.547 438.54 120.997 438.54 121.51C438.54 122.023 438.64 122.477 438.84 122.87C439.047 123.257 439.33 123.557 439.69 123.77C440.05 123.977 440.46 124.08 440.92 124.08ZM448.372 119.4C448.805 119.4 449.192 119.49 449.532 119.67C449.878 119.85 450.148 120.117 450.342 120.47C450.535 120.823 450.632 121.25 450.632 121.75V125H449.502V121.92C449.502 121.427 449.378 121.05 449.132 120.79C448.885 120.523 448.548 120.39 448.122 120.39C447.695 120.39 447.355 120.523 447.102 120.79C446.855 121.05 446.732 121.427 446.732 121.92V125H445.592V119.49H446.732V120.12C446.918 119.893 447.155 119.717 447.442 119.59C447.735 119.463 448.045 119.4 448.372 119.4ZM454.306 119.4C454.733 119.4 455.109 119.487 455.436 119.66C455.769 119.827 456.029 120.037 456.216 120.29V119.49H457.366V125.09C457.366 125.597 457.259 126.047 457.046 126.44C456.833 126.84 456.523 127.153 456.116 127.38C455.716 127.607 455.236 127.72 454.676 127.72C453.929 127.72 453.309 127.543 452.816 127.19C452.323 126.843 452.043 126.37 451.976 125.77H453.106C453.193 126.057 453.376 126.287 453.656 126.46C453.943 126.64 454.283 126.73 454.676 126.73C455.136 126.73 455.506 126.59 455.786 126.31C456.073 126.03 456.216 125.623 456.216 125.09V124.17C456.023 124.43 455.759 124.65 455.426 124.83C455.099 125.003 454.726 125.09 454.306 125.09C453.826 125.09 453.386 124.97 452.986 124.73C452.593 124.483 452.279 124.143 452.046 123.71C451.819 123.27 451.706 122.773 451.706 122.22C451.706 121.667 451.819 121.177 452.046 120.75C452.279 120.323 452.593 119.993 452.986 119.76C453.386 119.52 453.826 119.4 454.306 119.4ZM456.216 122.24C456.216 121.86 456.136 121.53 455.976 121.25C455.823 120.97 455.619 120.757 455.366 120.61C455.113 120.463 454.839 120.39 454.546 120.39C454.253 120.39 453.979 120.463 453.726 120.61C453.473 120.75 453.266 120.96 453.106 121.24C452.953 121.513 452.876 121.84 452.876 122.22C452.876 122.6 452.953 122.933 453.106 123.22C453.266 123.507 453.473 123.727 453.726 123.88C453.986 124.027 454.259 124.1 454.546 124.1C454.839 124.1 455.113 124.027 455.366 123.88C455.619 123.733 455.823 123.52 455.976 123.24C456.136 122.953 456.216 122.62 456.216 122.24ZM461.253 125.09C460.733 125.09 460.263 124.973 459.843 124.74C459.423 124.5 459.093 124.167 458.853 123.74C458.613 123.307 458.493 122.807 458.493 122.24C458.493 121.68 458.617 121.183 458.863 120.75C459.11 120.317 459.447 119.983 459.873 119.75C460.3 119.517 460.777 119.4 461.303 119.4C461.83 119.4 462.307 119.517 462.733 119.75C463.16 119.983 463.497 120.317 463.743 120.75C463.99 121.183 464.113 121.68 464.113 122.24C464.113 122.8 463.987 123.297 463.733 123.73C463.48 124.163 463.133 124.5 462.693 124.74C462.26 124.973 461.78 125.09 461.253 125.09ZM461.253 124.1C461.547 124.1 461.82 124.03 462.073 123.89C462.333 123.75 462.543 123.54 462.703 123.26C462.863 122.98 462.943 122.64 462.943 122.24C462.943 121.84 462.867 121.503 462.713 121.23C462.56 120.95 462.357 120.74 462.103 120.6C461.85 120.46 461.577 120.39 461.283 120.39C460.99 120.39 460.717 120.46 460.463 120.6C460.217 120.74 460.02 120.95 459.873 121.23C459.727 121.503 459.653 121.84 459.653 122.24C459.653 122.833 459.803 123.293 460.103 123.62C460.41 123.94 460.793 124.1 461.253 124.1ZM465.82 118.76C465.614 118.76 465.44 118.69 465.3 118.55C465.16 118.41 465.09 118.237 465.09 118.03C465.09 117.823 465.16 117.65 465.3 117.51C465.44 117.37 465.614 117.3 465.82 117.3C466.02 117.3 466.19 117.37 466.33 117.51C466.47 117.65 466.54 117.823 466.54 118.03C466.54 118.237 466.47 118.41 466.33 118.55C466.19 118.69 466.02 118.76 465.82 118.76ZM466.38 119.49V125H465.24V119.49H466.38ZM470.657 119.4C471.09 119.4 471.477 119.49 471.817 119.67C472.164 119.85 472.434 120.117 472.627 120.47C472.82 120.823 472.917 121.25 472.917 121.75V125H471.787V121.92C471.787 121.427 471.664 121.05 471.417 120.79C471.17 120.523 470.834 120.39 470.407 120.39C469.98 120.39 469.64 120.523 469.387 120.79C469.14 121.05 469.017 121.427 469.017 121.92V125H467.877V119.49H469.017V120.12C469.204 119.893 469.44 119.717 469.727 119.59C470.02 119.463 470.33 119.4 470.657 119.4ZM476.591 119.4C477.018 119.4 477.394 119.487 477.721 119.66C478.054 119.827 478.314 120.037 478.501 120.29V119.49H479.651V125.09C479.651 125.597 479.544 126.047 479.331 126.44C479.118 126.84 478.808 127.153 478.401 127.38C478.001 127.607 477.521 127.72 476.961 127.72C476.214 127.72 475.594 127.543 475.101 127.19C474.608 126.843 474.328 126.37 474.261 125.77H475.391C475.478 126.057 475.661 126.287 475.941 126.46C476.228 126.64 476.568 126.73 476.961 126.73C477.421 126.73 477.791 126.59 478.071 126.31C478.358 126.03 478.501 125.623 478.501 125.09V124.17C478.308 124.43 478.044 124.65 477.711 124.83C477.384 125.003 477.011 125.09 476.591 125.09C476.111 125.09 475.671 124.97 475.271 124.73C474.878 124.483 474.564 124.143 474.331 123.71C474.104 123.27 473.991 122.773 473.991 122.22C473.991 121.667 474.104 121.177 474.331 120.75C474.564 120.323 474.878 119.993 475.271 119.76C475.671 119.52 476.111 119.4 476.591 119.4ZM478.501 122.24C478.501 121.86 478.421 121.53 478.261 121.25C478.108 120.97 477.904 120.757 477.651 120.61C477.398 120.463 477.124 120.39 476.831 120.39C476.538 120.39 476.264 120.463 476.011 120.61C475.758 120.75 475.551 120.96 475.391 121.24C475.238 121.513 475.161 121.84 475.161 122.22C475.161 122.6 475.238 122.933 475.391 123.22C475.551 123.507 475.758 123.727 476.011 123.88C476.271 124.027 476.544 124.1 476.831 124.1C477.124 124.1 477.398 124.027 477.651 123.88C477.904 123.733 478.108 123.52 478.261 123.24C478.421 122.953 478.501 122.62 478.501 122.24ZM483.366 122.24C483.366 121.673 483.479 121.177 483.706 120.75C483.939 120.317 484.259 119.983 484.666 119.75C485.073 119.517 485.539 119.4 486.066 119.4C486.733 119.4 487.283 119.56 487.716 119.88C488.156 120.193 488.453 120.643 488.606 121.23H487.376C487.276 120.957 487.116 120.743 486.896 120.59C486.676 120.437 486.399 120.36 486.066 120.36C485.599 120.36 485.226 120.527 484.946 120.86C484.673 121.187 484.536 121.647 484.536 122.24C484.536 122.833 484.673 123.297 484.946 123.63C485.226 123.963 485.599 124.13 486.066 124.13C486.726 124.13 487.163 123.84 487.376 123.26H488.606C488.446 123.82 488.146 124.267 487.706 124.6C487.266 124.927 486.719 125.09 486.066 125.09C485.539 125.09 485.073 124.973 484.666 124.74C484.259 124.5 483.939 124.167 483.706 123.74C483.479 123.307 483.366 122.807 483.366 122.24ZM489.362 122.22C489.362 121.667 489.476 121.177 489.702 120.75C489.936 120.323 490.249 119.993 490.642 119.76C491.042 119.52 491.482 119.4 491.962 119.4C492.396 119.4 492.772 119.487 493.092 119.66C493.419 119.827 493.679 120.037 493.872 120.29V119.49H495.022V125H493.872V124.18C493.679 124.44 493.416 124.657 493.082 124.83C492.749 125.003 492.369 125.09 491.942 125.09C491.469 125.09 491.036 124.97 490.642 124.73C490.249 124.483 489.936 124.143 489.702 123.71C489.476 123.27 489.362 122.773 489.362 122.22ZM493.872 122.24C493.872 121.86 493.792 121.53 493.632 121.25C493.479 120.97 493.276 120.757 493.022 120.61C492.769 120.463 492.496 120.39 492.202 120.39C491.909 120.39 491.636 120.463 491.382 120.61C491.129 120.75 490.922 120.96 490.762 121.24C490.609 121.513 490.532 121.84 490.532 122.22C490.532 122.6 490.609 122.933 490.762 123.22C490.922 123.507 491.129 123.727 491.382 123.88C491.642 124.027 491.916 124.1 492.202 124.1C492.496 124.1 492.769 124.027 493.022 123.88C493.276 123.733 493.479 123.52 493.632 123.24C493.792 122.953 493.872 122.62 493.872 122.24ZM497.66 117.6V125H496.52V117.6H497.66ZM500.296 117.6V125H499.156V117.6H500.296Z" fill="white"/>
<path d="M582.58 119.51C582.62 118.89 582.857 118.407 583.29 118.06C583.73 117.713 584.29 117.54 584.97 117.54C585.437 117.54 585.84 117.623 586.18 117.79C586.52 117.957 586.777 118.183 586.95 118.47C587.123 118.757 587.21 119.08 587.21 119.44C587.21 119.853 587.1 120.207 586.88 120.5C586.66 120.793 586.397 120.99 586.09 121.09V121.13C586.483 121.25 586.79 121.47 587.01 121.79C587.23 122.103 587.34 122.507 587.34 123C587.34 123.393 587.25 123.743 587.07 124.05C586.89 124.357 586.623 124.6 586.27 124.78C585.917 124.953 585.493 125.04 585 125.04C584.28 125.04 583.687 124.857 583.22 124.49C582.76 124.117 582.513 123.583 582.48 122.89H583.58C583.607 123.243 583.743 123.533 583.99 123.76C584.237 123.98 584.57 124.09 584.99 124.09C585.397 124.09 585.71 123.98 585.93 123.76C586.15 123.533 586.26 123.243 586.26 122.89C586.26 122.423 586.11 122.093 585.81 121.9C585.517 121.7 585.063 121.6 584.45 121.6H584.19V120.66H584.46C585 120.653 585.41 120.563 585.69 120.39C585.977 120.217 586.12 119.943 586.12 119.57C586.12 119.25 586.017 118.997 585.81 118.81C585.603 118.617 585.31 118.52 584.93 118.52C584.557 118.52 584.267 118.617 584.06 118.81C583.853 118.997 583.73 119.23 583.69 119.51H582.58ZM589.148 125.07C588.941 125.07 588.768 125 588.628 124.86C588.488 124.72 588.418 124.547 588.418 124.34C588.418 124.133 588.488 123.96 588.628 123.82C588.768 123.68 588.941 123.61 589.148 123.61C589.348 123.61 589.518 123.68 589.658 123.82C589.798 123.96 589.868 124.133 589.868 124.34C589.868 124.547 589.798 124.72 589.658 124.86C589.518 125 589.348 125.07 589.148 125.07ZM589.148 120.87C588.941 120.87 588.768 120.8 588.628 120.66C588.488 120.52 588.418 120.347 588.418 120.14C588.418 119.933 588.488 119.76 588.628 119.62C588.768 119.48 588.941 119.41 589.148 119.41C589.348 119.41 589.518 119.48 589.658 119.62C589.798 119.76 589.868 119.933 589.868 120.14C589.868 120.347 589.798 120.52 589.658 120.66C589.518 120.8 589.348 120.87 589.148 120.87ZM590.849 123.48V122.62L594.209 117.8H595.589V122.49H596.519V123.48H595.589V125H594.469V123.48H590.849ZM594.519 118.96L592.159 122.49H594.519V118.96ZM597.443 119.51C597.483 118.89 597.72 118.407 598.153 118.06C598.593 117.713 599.153 117.54 599.833 117.54C600.3 117.54 600.703 117.623 601.043 117.79C601.383 117.957 601.64 118.183 601.813 118.47C601.987 118.757 602.073 119.08 602.073 119.44C602.073 119.853 601.963 120.207 601.743 120.5C601.523 120.793 601.26 120.99 600.953 121.09V121.13C601.347 121.25 601.653 121.47 601.873 121.79C602.093 122.103 602.203 122.507 602.203 123C602.203 123.393 602.113 123.743 601.933 124.05C601.753 124.357 601.487 124.6 601.133 124.78C600.78 124.953 600.357 125.04 599.863 125.04C599.143 125.04 598.55 124.857 598.083 124.49C597.623 124.117 597.377 123.583 597.343 122.89H598.443C598.47 123.243 598.607 123.533 598.853 123.76C599.1 123.98 599.433 124.09 599.853 124.09C600.26 124.09 600.573 123.98 600.793 123.76C601.013 123.533 601.123 123.243 601.123 122.89C601.123 122.423 600.973 122.093 600.673 121.9C600.38 121.7 599.927 121.6 599.313 121.6H599.053V120.66H599.323C599.863 120.653 600.273 120.563 600.553 120.39C600.84 120.217 600.983 119.943 600.983 119.57C600.983 119.25 600.88 118.997 600.673 118.81C600.467 118.617 600.173 118.52 599.793 118.52C599.42 118.52 599.13 118.617 598.923 118.81C598.717 118.997 598.593 119.23 598.553 119.51H597.443Z" fill="white"/>
<path d="M561.341 482.33C548.965 487.717 539.737 486.584 522.095 490.626C499.153 486.584 487.568 486.584 453.585 486.584C455.588 457.007 461.346 406.818 465.583 393.851C475.419 363.8 539.737 377.322 539.737 377.322C539.737 377.322 553.87 439.446 561.341 482.33Z" fill="#5E41A7"/>
<path d="M546.002 222.146C546.002 227.372 541.764 231.609 536.538 231.609C531.312 231.609 527.074 227.372 527.074 222.146C527.074 216.919 531.312 212.682 536.538 212.682C541.764 212.682 546.002 216.919 546.002 222.146Z" fill="#807066"/>
<path d="M500.936 222.145C500.936 227.372 496.699 231.609 491.473 231.609C486.246 231.609 482.009 227.372 482.009 222.145C482.009 216.919 486.246 212.681 491.473 212.681C496.699 212.681 500.936 216.919 500.936 222.145Z" fill="#807066"/>
<path d="M486.859 220.197C486.699 219.424 483.054 201.053 492.116 189.642C496.494 184.134 503.066 181.232 511.656 181.016C521.26 180.77 528.63 183.306 533.581 188.542C542.181 197.634 540.991 212.254 540.549 217.757C540.494 218.409 540.454 218.922 540.439 219.268L537.642 219.163C537.657 218.756 537.703 218.214 537.758 217.531C538.174 212.37 539.289 198.648 531.547 190.47C527.164 185.831 520.492 183.592 511.726 183.813C504.009 184.008 498.15 186.554 494.315 191.379C486.061 201.756 489.565 219.459 489.6 219.634L486.859 220.197Z" fill="#807066"/>
<path d="M534.282 228.366C534.282 228.366 552.562 266.909 539.98 269.213C522.7 272.376 515.711 240.45 515.711 240.45L534.282 228.366Z" fill="#434343"/>
<path d="M534.701 264.836C534.701 264.836 542.799 265.599 548.919 272.156C555.034 278.708 560.778 289.165 562.379 292.66C563.986 296.159 586.448 328.562 587.613 329.29C588.778 330.018 598.598 327.437 606.465 326.78C619.303 325.715 638.506 319.173 638.506 319.173L641.358 333.678C641.358 333.678 594.124 348.92 583.225 346.234C569.9 342.951 539.214 303.59 539.214 303.59C539.214 303.59 516.341 276.78 534.701 264.836Z" fill="#82D2BE"/>
<path d="M520.565 259.152C520.565 259.152 531.053 264.107 534.698 264.835C538.338 265.563 552.471 283.918 554.946 290.621C557.426 297.323 554.946 307.374 549.85 319.178C544.749 330.976 549.559 334.912 547.225 346.711C544.895 358.514 544.895 390.686 545.337 397.243C545.774 403.795 477.89 416.16 464.34 404.216C464.34 404.216 473.512 373.977 484.372 362.621C486.722 360.166 486.475 343.799 484.869 339.717C483.267 335.64 465.203 305.19 465.203 305.19C465.203 305.19 463.878 274.304 471.76 268.184C478.608 262.867 497.27 260.969 500.619 259.804C503.972 258.64 513.717 258.133 520.565 259.152Z" fill="#82D2BE"/>
<path d="M525.569 247.047C525.569 247.047 523.476 266.291 523.913 272.557C523.913 272.557 513.013 283.477 500.617 259.804C500.617 259.804 505.834 250.049 501.907 236.75C497.981 223.455 525.569 247.047 525.569 247.047Z" fill="#EEA886"/>
<path d="M535.05 351.556L491.512 426.965L443.113 399.02L484.759 322.516L535.05 351.556Z" fill="#F17B99"/>
<path d="M556.09 323.525C556.09 323.525 558.711 306.074 555.92 295.46C555.92 295.46 555.849 304.663 550.844 317.621L556.09 323.525Z" fill="#96E6D2"/>
<path d="M513.467 401.636C513.467 401.636 511.484 401.646 510.615 401.229C510.615 401.229 509.099 400.345 507.979 399.783C507.623 399.607 507.307 399.457 507.096 399.387C506.207 399.08 504.169 398.669 502.241 397.333C500.318 395.998 493.5 388.105 493.5 388.105L496.718 383.21L499.083 378.195C499.083 378.195 513.397 379.118 515.335 380.158C515.52 380.258 515.706 380.369 515.867 380.479C517.423 381.518 518.141 382.944 518.899 383.582C519.17 383.813 521.756 386.343 521.665 387.417C521.54 388.909 520.847 389.893 519.948 390.385C519.948 390.385 519.577 393.297 518.141 394.657C518.141 394.657 517.89 397.353 515.621 398.538C515.621 398.538 515.053 401.244 513.467 401.636Z" fill="#FFC7A5"/>
<path d="M483.961 264.835C483.961 264.835 470.742 261.045 463.166 275.614C455.59 290.184 455.625 296.399 454.611 303.514C453.657 310.231 449.339 328.571 448.902 330.464C448.465 332.362 438.69 354.944 443.174 362.837C447.682 370.774 493.44 394.13 493.149 395.877C492.857 397.624 501.076 378.22 501.076 378.22C501.076 378.22 482.56 367.898 479.528 364.72C474.603 359.558 464.21 353.996 466.344 347.594C468.854 340.073 476.385 314.694 478.132 310.979C479.879 307.264 495.107 269.57 483.961 264.835Z" fill="#82D2BE"/>
<path d="M518.151 183.296C518.151 183.296 540.227 186.695 536.994 221.467C533.76 256.24 514.28 253.478 512.975 253.453C511.675 253.423 493.43 254.176 491.854 211.742C491.854 211.742 491.115 180.369 518.151 183.296Z" fill="#FFC7A5"/>
<path d="M496.083 209.669C496.083 209.669 520.584 216.954 532.317 214.625C532.317 214.625 533.065 218.947 534.747 219.213C536.434 219.485 537.292 210.945 537.292 210.945C537.292 210.945 537.87 182.669 512.29 182.403C486.71 182.136 491.906 213.028 491.906 213.028L492.253 218.31C492.253 218.31 495.918 219.756 496.083 209.669Z" fill="#434343"/>
<path d="M504.293 250.134C504.293 250.134 512.025 257.454 523.913 250.737C523.913 250.737 520.404 256.601 513.737 256.455C507.074 256.305 504.293 250.134 504.293 250.134Z" fill="#A77860"/>
<path d="M492.246 261.486C492.246 261.486 499.742 283.632 520.331 282.005C540.916 280.374 530.091 263.304 530.091 263.304C530.091 263.304 524.96 260.362 523.514 260.086C522.073 259.804 500.756 259.538 500.756 259.538L492.246 261.486Z" fill="#FFC7A5"/>
<path d="M523.107 245.696L522.113 244.12C534.976 236.017 540.082 222.797 540.132 222.662L541.879 223.325C541.663 223.887 536.497 237.267 523.107 245.696Z" fill="#807066"/>
<path d="M524.485 244.909C524.485 246.731 523.009 248.202 521.192 248.202C519.374 248.202 517.898 246.731 517.898 244.909C517.898 243.091 519.374 241.615 521.192 241.615C523.009 241.615 524.485 243.091 524.485 244.909Z" fill="#807066"/>
<g clip-path="url(#clip1_117_395)">
<rect x="536" y="141" width="60" height="79" rx="2" fill="#FFF0F0"/>
<path d="M561.886 159.811C561.809 159.811 561.732 159.811 561.656 159.811V155.728C561.656 155.051 562.205 154.502 562.881 154.502H563.163C563.84 154.502 564.388 155.051 564.388 155.728V159.722C563.517 159.785 562.678 159.811 561.886 159.811Z" fill="#3D43A0"/>
<path d="M568.909 168.205C568.909 168.589 568.581 168.9 568.177 168.9C567.773 168.9 567.445 168.588 567.445 168.205C567.446 167.821 567.773 167.51 568.178 167.51C568.582 167.51 568.91 167.821 568.909 168.205Z" fill="#322E44"/>
<path d="M581.043 213.943L583.34 214.71L592.189 205.155C585.747 193 577.82 188.415 573.217 186.706C571.419 186.039 569.513 185.713 567.595 185.712L561.187 185.709C559.453 185.708 557.722 185.987 556.102 186.606C542.1 191.957 537 213.538 537 213.538L538.9 213.855L548.105 215.391L548.1 225.272L581.037 225.289L581.043 213.943Z" fill="#F17B99"/>
<path d="M547.97 215.391L538.974 213.939L538.969 225.268L547.965 225.272L547.97 215.391Z" fill="#F9D8D0"/>
<path d="M584.434 213.581L590.524 206.85L595.972 225.119L588.921 225.119L584.434 213.581Z" fill="#F9D8D0"/>
<path d="M577.261 157.8C575.337 153.58 571.922 155.285 571.922 155.285C570.938 152.796 568.148 149.847 564.288 149.51C561.476 149.265 560.084 150.452 559.156 150.794C556.973 149.571 554.825 149.511 553.258 151.183C550.956 153.639 551.889 155.861 552.496 156.809C552.668 157.177 553.489 158.444 554.232 158.855C552.97 161.851 551.972 166.763 558.702 167.23L572.782 167.944C572.782 167.944 573.858 167.035 575 165.649C576.682 163.609 578.509 160.534 577.261 157.8Z" fill="#322E44"/>
<path d="M574.999 165.649C573.857 167.035 572.781 167.944 572.781 167.944L572.301 162.565C570.214 162.415 569.685 160.942 569.653 159.573L566.076 159.555C560.962 160.201 556.574 159.446 555.591 159.254L555.361 159.272C555.341 159.313 555.305 159.367 555.249 159.406L555.247 165.331H555.01C553.472 165.33 552.224 166.576 552.224 168.114V168.417C552.223 169.954 553.469 171.202 555.007 171.203L555.243 171.203L555.241 175.232C555.24 178.307 557.423 180.367 559.38 180.701L558.684 188.58C558.683 190.708 560.408 192.434 562.536 192.435L565.092 192.437C567.387 192.438 569.248 190.578 569.249 188.284L568.561 180.77H568.572C571.365 180.771 573.65 178.488 573.652 175.696L573.654 171.212H573.726C575.264 171.213 576.512 169.966 576.512 168.429V168.126C576.513 167.046 575.897 166.112 574.999 165.649Z" fill="#F9D8D0"/>
<path d="M568.834 184.222L559.616 180.707C559.801 180.743 559.988 180.766 560.181 180.766L568.494 180.77L568.834 184.222Z" fill="#F9CBC0"/>
<path d="M561.465 164.306C561.233 164.466 560.913 164.461 560.605 164.479C560.293 164.489 559.981 164.51 559.71 164.539C559.439 164.568 559.129 164.615 558.822 164.671C558.516 164.72 558.202 164.792 557.949 164.684C557.704 164.585 557.576 164.239 557.81 163.771C558.028 163.315 558.661 162.779 559.557 162.68C560.454 162.586 561.163 162.978 561.451 163.379C561.757 163.789 561.688 164.156 561.465 164.306Z" fill="#322E44"/>
<path d="M569.865 165.135C569.568 165.219 569.249 165.111 568.933 165.03C568.616 164.938 568.296 164.857 568.012 164.799C567.729 164.74 567.399 164.686 567.069 164.644C566.743 164.593 566.398 164.563 566.188 164.374C565.983 164.195 565.995 163.808 566.419 163.416C566.822 163.032 567.673 162.701 568.612 162.892C569.548 163.088 570.1 163.711 570.228 164.204C570.368 164.713 570.15 165.058 569.865 165.135Z" fill="#322E44"/>
<path d="M564.211 175.994L563.398 175.994C563.003 175.994 562.684 175.894 562.684 175.77L562.685 175.172L567.169 174.82L567.169 175.066C567.168 175.579 565.844 175.995 564.211 175.994Z" fill="white"/>
</g>
<circle cx="516" cy="354" r="14" fill="#DE4B4B"/>
<path d="M512.135 356.268C512.936 356.005 513.368 355.152 513.096 354.377L512.968 353.99C514.984 353.525 517.081 353.571 519.065 354.129L518.937 354.47C518.633 355.245 519.033 356.098 519.818 356.392L521.482 357.012C522.282 357.307 523.162 356.919 523.466 356.16L523.578 355.865C524.171 354.377 523.402 352.703 521.85 352.13L521.802 352.099C521.242 351.851 520.65 351.649 520.074 351.479H520.058C517.449 350.719 514.68 350.704 512.039 351.37H512.023C511.463 351.51 509.975 352.037 509.863 352.083C509.847 352.083 509.831 352.099 509.831 352.099C508.535 352.75 507.894 354.238 508.39 355.602L508.503 355.896C508.775 356.671 509.655 357.09 510.455 356.826L512.135 356.268Z" fill="#ECECEC"/>
</g>
<rect x="47" y="74" width="301" height="8" fill="#FFEBF3"/>
<rect x="44" y="224" width="301" height="8" fill="#FFEBF3"/>
<rect x="47" y="153" width="301" height="8" fill="#FFEBF3"/>
<rect x="44" y="303" width="301" height="8" fill="#FFEBF3"/>
<rect x="47" y="90" width="247" height="6" fill="#FFEBF3"/>
<rect x="44" y="240" width="246" height="6" fill="#FFEBF3"/>
<rect x="47" y="169" width="247" height="6" fill="#FFEBF3"/>
<rect x="44" y="319" width="246" height="6" fill="#FFEBF3"/>
<rect x="47" y="104" width="266" height="6" fill="#FFEBF3"/>
<rect x="44" y="254" width="266" height="6" fill="#FFEBF3"/>
<rect x="47" y="183" width="266" height="6" fill="#FFEBF3"/>
<rect x="44" y="333" width="266" height="6" fill="#FFEBF3"/>
<rect x="47" y="118" width="247" height="6" fill="#FFEBF3"/>
<rect x="44" y="268" width="246" height="6" fill="#FFEBF3"/>
<rect x="47" y="197" width="247" height="6" fill="#FFEBF3"/>
<line opacity="0.5" x1="2" y1="49.5" x2="614" y2="49.5" stroke="#8D94C1"/>
<rect x="180.5" y="10.5" width="291" height="31" rx="15.5" fill="#FAFAFA" stroke="#E0E0E0"/>
<path d="M243.04 23.16C243.628 23.16 244.151 23.286 244.608 23.538C245.075 23.79 245.439 24.1633 245.7 24.658C245.971 25.1527 246.106 25.75 246.106 26.45V31H244.524V26.688C244.524 25.9973 244.351 25.47 244.006 25.106C243.661 24.7327 243.189 24.546 242.592 24.546C241.995 24.546 241.519 24.7327 241.164 25.106C240.819 25.47 240.646 25.9973 240.646 26.688V31H239.05V20.64H240.646V24.182C240.917 23.8553 241.257 23.6033 241.668 23.426C242.088 23.2487 242.545 23.16 243.04 23.16ZM250.004 24.588V28.858C250.004 29.1473 250.069 29.3573 250.2 29.488C250.34 29.6093 250.573 29.67 250.9 29.67H251.88V31H250.62C249.901 31 249.35 30.832 248.968 30.496C248.585 30.16 248.394 29.614 248.394 28.858V24.588H247.484V23.286H248.394V21.368H250.004V23.286H251.88V24.588H250.004ZM255.213 24.588V28.858C255.213 29.1473 255.278 29.3573 255.409 29.488C255.549 29.6093 255.782 29.67 256.109 29.67H257.089V31H255.829C255.11 31 254.559 30.832 254.177 30.496C253.794 30.16 253.603 29.614 253.603 28.858V24.588H252.693V23.286H253.603V21.368H255.213V23.286H257.089V24.588H255.213ZM260.156 24.42C260.426 24.0653 260.795 23.7667 261.262 23.524C261.728 23.2813 262.256 23.16 262.844 23.16C263.516 23.16 264.127 23.328 264.678 23.664C265.238 23.9907 265.676 24.4527 265.994 25.05C266.311 25.6473 266.47 26.3333 266.47 27.108C266.47 27.8827 266.311 28.578 265.994 29.194C265.676 29.8007 265.238 30.2767 264.678 30.622C264.127 30.958 263.516 31.126 262.844 31.126C262.256 31.126 261.733 31.0093 261.276 30.776C260.818 30.5333 260.445 30.2347 260.156 29.88V34.668H258.56V23.286H260.156V24.42ZM264.846 27.108C264.846 26.576 264.734 26.1187 264.51 25.736C264.295 25.344 264.006 25.05 263.642 24.854C263.287 24.6487 262.904 24.546 262.494 24.546C262.092 24.546 261.71 24.6487 261.346 24.854C260.991 25.0593 260.702 25.358 260.478 25.75C260.263 26.142 260.156 26.604 260.156 27.136C260.156 27.668 260.263 28.1347 260.478 28.536C260.702 28.928 260.991 29.2267 261.346 29.432C261.71 29.6373 262.092 29.74 262.494 29.74C262.904 29.74 263.287 29.6373 263.642 29.432C264.006 29.2173 264.295 28.9093 264.51 28.508C264.734 28.1067 264.846 27.64 264.846 27.108ZM270.848 31.126C270.241 31.126 269.695 31.0187 269.21 30.804C268.734 30.58 268.356 30.2813 268.076 29.908C267.796 29.5253 267.647 29.1007 267.628 28.634H269.28C269.308 28.9607 269.462 29.236 269.742 29.46C270.031 29.6747 270.391 29.782 270.82 29.782C271.268 29.782 271.613 29.698 271.856 29.53C272.108 29.3527 272.234 29.1287 272.234 28.858C272.234 28.5687 272.094 28.354 271.814 28.214C271.543 28.074 271.109 27.92 270.512 27.752C269.933 27.5933 269.462 27.4393 269.098 27.29C268.734 27.1407 268.417 26.912 268.146 26.604C267.885 26.296 267.754 25.89 267.754 25.386C267.754 24.9753 267.875 24.602 268.118 24.266C268.361 23.9207 268.706 23.65 269.154 23.454C269.611 23.258 270.134 23.16 270.722 23.16C271.599 23.16 272.304 23.384 272.836 23.832C273.377 24.2707 273.667 24.8727 273.704 25.638H272.108C272.08 25.2927 271.94 25.0173 271.688 24.812C271.436 24.6067 271.095 24.504 270.666 24.504C270.246 24.504 269.924 24.5833 269.7 24.742C269.476 24.9007 269.364 25.1107 269.364 25.372C269.364 25.5773 269.439 25.75 269.588 25.89C269.737 26.03 269.919 26.142 270.134 26.226C270.349 26.3007 270.666 26.3987 271.086 26.52C271.646 26.6693 272.103 26.8233 272.458 26.982C272.822 27.1313 273.135 27.3553 273.396 27.654C273.657 27.9527 273.793 28.3493 273.802 28.844C273.802 29.2827 273.681 29.6747 273.438 30.02C273.195 30.3653 272.85 30.636 272.402 30.832C271.963 31.028 271.445 31.126 270.848 31.126ZM276.171 31.098C275.881 31.098 275.639 31 275.443 30.804C275.247 30.608 275.149 30.3653 275.149 30.076C275.149 29.7867 275.247 29.544 275.443 29.348C275.639 29.152 275.881 29.054 276.171 29.054C276.451 29.054 276.689 29.152 276.885 29.348C277.081 29.544 277.179 29.7867 277.179 30.076C277.179 30.3653 277.081 30.608 276.885 30.804C276.689 31 276.451 31.098 276.171 31.098ZM276.171 25.218C275.881 25.218 275.639 25.12 275.443 24.924C275.247 24.728 275.149 24.4853 275.149 24.196C275.149 23.9067 275.247 23.664 275.443 23.468C275.639 23.272 275.881 23.174 276.171 23.174C276.451 23.174 276.689 23.272 276.885 23.468C277.081 23.664 277.179 23.9067 277.179 24.196C277.179 24.4853 277.081 24.728 276.885 24.924C276.689 25.12 276.451 25.218 276.171 25.218ZM284.138 17.784L280.33 33.45H278.762L282.556 17.784H284.138ZM291.33 17.784L287.522 33.45H285.954L289.748 17.784H291.33Z" fill="#A3A3A3"/>
<path d="M300.285 23.286L295.553 34.626H293.901L295.469 30.874L292.431 23.286H294.209L296.379 29.166L298.633 23.286H300.285ZM304.835 31.126C304.107 31.126 303.449 30.9627 302.861 30.636C302.273 30.3 301.811 29.8333 301.475 29.236C301.139 28.6293 300.971 27.9293 300.971 27.136C300.971 26.352 301.144 25.6567 301.489 25.05C301.835 24.4433 302.306 23.9767 302.903 23.65C303.501 23.3233 304.168 23.16 304.905 23.16C305.643 23.16 306.31 23.3233 306.907 23.65C307.505 23.9767 307.976 24.4433 308.321 25.05C308.667 25.6567 308.839 26.352 308.839 27.136C308.839 27.92 308.662 28.6153 308.307 29.222C307.953 29.8287 307.467 30.3 306.851 30.636C306.245 30.9627 305.573 31.126 304.835 31.126ZM304.835 29.74C305.246 29.74 305.629 29.642 305.983 29.446C306.347 29.25 306.641 28.956 306.865 28.564C307.089 28.172 307.201 27.696 307.201 27.136C307.201 26.576 307.094 26.1047 306.879 25.722C306.665 25.33 306.38 25.036 306.025 24.84C305.671 24.644 305.288 24.546 304.877 24.546C304.467 24.546 304.084 24.644 303.729 24.84C303.384 25.036 303.109 25.33 302.903 25.722C302.698 26.1047 302.595 26.576 302.595 27.136C302.595 27.9667 302.805 28.6107 303.225 29.068C303.655 29.516 304.191 29.74 304.835 29.74ZM317.403 23.286V31H315.807V30.09C315.555 30.4073 315.224 30.6593 314.813 30.846C314.412 31.0233 313.983 31.112 313.525 31.112C312.919 31.112 312.373 30.986 311.887 30.734C311.411 30.482 311.033 30.1087 310.753 29.614C310.483 29.1193 310.347 28.522 310.347 27.822V23.286H311.929V27.584C311.929 28.2747 312.102 28.8067 312.447 29.18C312.793 29.544 313.264 29.726 313.861 29.726C314.459 29.726 314.93 29.544 315.275 29.18C315.63 28.8067 315.807 28.2747 315.807 27.584V23.286H317.403ZM321.105 24.406C321.338 24.014 321.646 23.7107 322.029 23.496C322.421 23.272 322.883 23.16 323.415 23.16V24.812H323.009C322.384 24.812 321.908 24.9707 321.581 25.288C321.264 25.6053 321.105 26.156 321.105 26.94V31H319.509V23.286H321.105V24.406ZM335.242 23.286L332.848 31H331.168L329.614 25.302L328.06 31H326.38L323.972 23.286H325.596L327.206 29.488L328.844 23.286H330.51L332.078 29.46L333.674 23.286H335.242ZM343.505 26.954C343.505 27.2433 343.486 27.5047 343.449 27.738H337.555C337.601 28.354 337.83 28.8487 338.241 29.222C338.651 29.5953 339.155 29.782 339.753 29.782C340.611 29.782 341.218 29.4227 341.573 28.704H343.295C343.061 29.4133 342.637 29.9967 342.021 30.454C341.414 30.902 340.658 31.126 339.753 31.126C339.015 31.126 338.353 30.9627 337.765 30.636C337.186 30.3 336.729 29.8333 336.393 29.236C336.066 28.6293 335.903 27.9293 335.903 27.136C335.903 26.3427 336.061 25.6473 336.379 25.05C336.705 24.4433 337.158 23.9767 337.737 23.65C338.325 23.3233 338.997 23.16 339.753 23.16C340.481 23.16 341.129 23.3187 341.699 23.636C342.268 23.9533 342.711 24.4013 343.029 24.98C343.346 25.5493 343.505 26.2073 343.505 26.954ZM341.839 26.45C341.829 25.862 341.619 25.3907 341.209 25.036C340.798 24.6813 340.289 24.504 339.683 24.504C339.132 24.504 338.661 24.6813 338.269 25.036C337.877 25.3813 337.643 25.8527 337.569 26.45H341.839ZM346.671 24.434C346.942 24.0607 347.311 23.7573 347.777 23.524C348.253 23.2813 348.781 23.16 349.359 23.16C350.041 23.16 350.657 23.3233 351.207 23.65C351.758 23.9767 352.192 24.4433 352.509 25.05C352.827 25.6473 352.985 26.3333 352.985 27.108C352.985 27.8827 352.827 28.578 352.509 29.194C352.192 29.8007 351.753 30.2767 351.193 30.622C350.643 30.958 350.031 31.126 349.359 31.126C348.762 31.126 348.23 31.0093 347.763 30.776C347.306 30.5427 346.942 30.244 346.671 29.88V31H345.075V20.64H346.671V24.434ZM351.361 27.108C351.361 26.576 351.249 26.1187 351.025 25.736C350.811 25.344 350.521 25.05 350.157 24.854C349.803 24.6487 349.42 24.546 349.009 24.546C348.608 24.546 348.225 24.6487 347.861 24.854C347.507 25.0593 347.217 25.358 346.993 25.75C346.779 26.142 346.671 26.604 346.671 27.136C346.671 27.668 346.779 28.1347 346.993 28.536C347.217 28.928 347.507 29.2267 347.861 29.432C348.225 29.6373 348.608 29.74 349.009 29.74C349.42 29.74 349.803 29.6373 350.157 29.432C350.521 29.2173 350.811 28.9093 351.025 28.508C351.249 28.1067 351.361 27.64 351.361 27.108ZM357.364 31.126C356.757 31.126 356.211 31.0187 355.726 30.804C355.25 30.58 354.872 30.2813 354.592 29.908C354.312 29.5253 354.162 29.1007 354.144 28.634H355.796C355.824 28.9607 355.978 29.236 356.258 29.46C356.547 29.6747 356.906 29.782 357.336 29.782C357.784 29.782 358.129 29.698 358.372 29.53C358.624 29.3527 358.75 29.1287 358.75 28.858C358.75 28.5687 358.61 28.354 358.33 28.214C358.059 28.074 357.625 27.92 357.028 27.752C356.449 27.5933 355.978 27.4393 355.614 27.29C355.25 27.1407 354.932 26.912 354.662 26.604C354.4 26.296 354.27 25.89 354.27 25.386C354.27 24.9753 354.391 24.602 354.634 24.266C354.876 23.9207 355.222 23.65 355.67 23.454C356.127 23.258 356.65 23.16 357.238 23.16C358.115 23.16 358.82 23.384 359.352 23.832C359.893 24.2707 360.182 24.8727 360.22 25.638H358.624C358.596 25.2927 358.456 25.0173 358.204 24.812C357.952 24.6067 357.611 24.504 357.182 24.504C356.762 24.504 356.44 24.5833 356.216 24.742C355.992 24.9007 355.88 25.1107 355.88 25.372C355.88 25.5773 355.954 25.75 356.104 25.89C356.253 26.03 356.435 26.142 356.65 26.226C356.864 26.3007 357.182 26.3987 357.602 26.52C358.162 26.6693 358.619 26.8233 358.974 26.982C359.338 27.1313 359.65 27.3553 359.912 27.654C360.173 27.9527 360.308 28.3493 360.318 28.844C360.318 29.2827 360.196 29.6747 359.954 30.02C359.711 30.3653 359.366 30.636 358.918 30.832C358.479 31.028 357.961 31.126 357.364 31.126ZM362.854 22.264C362.565 22.264 362.322 22.166 362.126 21.97C361.93 21.774 361.832 21.5313 361.832 21.242C361.832 20.9527 361.93 20.71 362.126 20.514C362.322 20.318 362.565 20.22 362.854 20.22C363.134 20.22 363.372 20.318 363.568 20.514C363.764 20.71 363.862 20.9527 363.862 21.242C363.862 21.5313 363.764 21.774 363.568 21.97C363.372 22.166 363.134 22.264 362.854 22.264ZM363.638 23.286V31H362.042V23.286H363.638ZM367.596 24.588V28.858C367.596 29.1473 367.661 29.3573 367.792 29.488C367.932 29.6093 368.165 29.67 368.492 29.67H369.472V31H368.212C367.493 31 366.942 30.832 366.56 30.496C366.177 30.16 365.986 29.614 365.986 28.858V24.588H365.076V23.286H365.986V21.368H367.596V23.286H369.472V24.588H367.596ZM378.013 26.954C378.013 27.2433 377.994 27.5047 377.957 27.738H372.063C372.109 28.354 372.338 28.8487 372.749 29.222C373.159 29.5953 373.663 29.782 374.261 29.782C375.119 29.782 375.726 29.4227 376.081 28.704H377.803C377.569 29.4133 377.145 29.9967 376.529 30.454C375.922 30.902 375.166 31.126 374.261 31.126C373.523 31.126 372.861 30.9627 372.273 30.636C371.694 30.3 371.237 29.8333 370.901 29.236C370.574 28.6293 370.411 27.9293 370.411 27.136C370.411 26.3427 370.569 25.6473 370.887 25.05C371.213 24.4433 371.666 23.9767 372.245 23.65C372.833 23.3233 373.505 23.16 374.261 23.16C374.989 23.16 375.637 23.3187 376.207 23.636C376.776 23.9533 377.219 24.4013 377.537 24.98C377.854 25.5493 378.013 26.2073 378.013 26.954ZM376.347 26.45C376.337 25.862 376.127 25.3907 375.717 25.036C375.306 24.6813 374.797 24.504 374.191 24.504C373.64 24.504 373.169 24.6813 372.777 25.036C372.385 25.3813 372.151 25.8527 372.077 26.45H376.347ZM380.227 31.098C379.938 31.098 379.695 31 379.499 30.804C379.303 30.608 379.205 30.3653 379.205 30.076C379.205 29.7867 379.303 29.544 379.499 29.348C379.695 29.152 379.938 29.054 380.227 29.054C380.507 29.054 380.745 29.152 380.941 29.348C381.137 29.544 381.235 29.7867 381.235 30.076C381.235 30.3653 381.137 30.608 380.941 30.804C380.745 31 380.507 31.098 380.227 31.098ZM382.428 27.136C382.428 26.3427 382.587 25.6473 382.904 25.05C383.231 24.4433 383.679 23.9767 384.248 23.65C384.817 23.3233 385.471 23.16 386.208 23.16C387.141 23.16 387.911 23.384 388.518 23.832C389.134 24.2707 389.549 24.9007 389.764 25.722H388.042C387.902 25.3393 387.678 25.0407 387.37 24.826C387.062 24.6113 386.675 24.504 386.208 24.504C385.555 24.504 385.032 24.7373 384.64 25.204C384.257 25.6613 384.066 26.3053 384.066 27.136C384.066 27.9667 384.257 28.6153 384.64 29.082C385.032 29.5487 385.555 29.782 386.208 29.782C387.132 29.782 387.743 29.376 388.042 28.564H389.764C389.54 29.348 389.12 29.9733 388.504 30.44C387.888 30.8973 387.123 31.126 386.208 31.126C385.471 31.126 384.817 30.9627 384.248 30.636C383.679 30.3 383.231 29.8333 382.904 29.236C382.587 28.6293 382.428 27.9293 382.428 27.136ZM394.701 31.126C393.973 31.126 393.315 30.9627 392.727 30.636C392.139 30.3 391.677 29.8333 391.341 29.236C391.005 28.6293 390.837 27.9293 390.837 27.136C390.837 26.352 391.009 25.6567 391.355 25.05C391.7 24.4433 392.171 23.9767 392.769 23.65C393.366 23.3233 394.033 23.16 394.771 23.16C395.508 23.16 396.175 23.3233 396.773 23.65C397.37 23.9767 397.841 24.4433 398.187 25.05C398.532 25.6567 398.705 26.352 398.705 27.136C398.705 27.92 398.527 28.6153 398.173 29.222C397.818 29.8287 397.333 30.3 396.717 30.636C396.11 30.9627 395.438 31.126 394.701 31.126ZM394.701 29.74C395.111 29.74 395.494 29.642 395.849 29.446C396.213 29.25 396.507 28.956 396.731 28.564C396.955 28.172 397.067 27.696 397.067 27.136C397.067 26.576 396.959 26.1047 396.745 25.722C396.53 25.33 396.245 25.036 395.891 24.84C395.536 24.644 395.153 24.546 394.743 24.546C394.332 24.546 393.949 24.644 393.595 24.84C393.249 25.036 392.974 25.33 392.769 25.722C392.563 26.1047 392.461 26.576 392.461 27.136C392.461 27.9667 392.671 28.6107 393.091 29.068C393.52 29.516 394.057 29.74 394.701 29.74ZM409.62 23.16C410.227 23.16 410.768 23.286 411.244 23.538C411.73 23.79 412.108 24.1633 412.378 24.658C412.658 25.1527 412.798 25.75 412.798 26.45V31H411.216V26.688C411.216 25.9973 411.044 25.47 410.698 25.106C410.353 24.7327 409.882 24.546 409.284 24.546C408.687 24.546 408.211 24.7327 407.856 25.106C407.511 25.47 407.338 25.9973 407.338 26.688V31H405.756V26.688C405.756 25.9973 405.584 25.47 405.238 25.106C404.893 24.7327 404.422 24.546 403.824 24.546C403.227 24.546 402.751 24.7327 402.396 25.106C402.051 25.47 401.878 25.9973 401.878 26.688V31H400.282V23.286H401.878V24.168C402.14 23.8507 402.471 23.6033 402.872 23.426C403.274 23.2487 403.703 23.16 404.16 23.16C404.776 23.16 405.327 23.2907 405.812 23.552C406.298 23.8133 406.671 24.1913 406.932 24.686C407.166 24.2193 407.53 23.8507 408.024 23.58C408.519 23.3 409.051 23.16 409.62 23.16Z" fill="#3A3A3A"/>
<path d="M615 366.376C615 379.919 603.924 391 590.387 391H25.6133C12.076 391 1 379.919 1 366.376V25.6238C1 12.0807 12.076 1 25.6133 1H590.379C603.916 1 614.992 12.0807 614.992 25.6238V366.376H615Z" stroke="#7D85B9" stroke-opacity="0.2" stroke-width="2" stroke-miterlimit="10" stroke-linecap="round" stroke-linejoin="round"/>
<g filter="url(#filter0_d_117_395)">
<rect x="190" y="84" width="200" height="268" rx="8" fill="white"/>
</g>
<path d="M207.58 120.126C206.704 120.126 205.912 119.976 205.204 119.676C204.508 119.376 203.956 118.944 203.548 118.38C203.14 117.816 202.93 117.15 202.918 116.382H205.618C205.654 116.898 205.834 117.306 206.158 117.606C206.494 117.906 206.95 118.056 207.526 118.056C208.114 118.056 208.576 117.918 208.912 117.642C209.248 117.354 209.416 116.982 209.416 116.526C209.416 116.154 209.302 115.848 209.074 115.608C208.846 115.368 208.558 115.182 208.21 115.05C207.874 114.906 207.406 114.75 206.806 114.582C205.99 114.342 205.324 114.108 204.808 113.88C204.304 113.64 203.866 113.286 203.494 112.818C203.134 112.338 202.954 111.702 202.954 110.91C202.954 110.166 203.14 109.518 203.512 108.966C203.884 108.414 204.406 107.994 205.078 107.706C205.75 107.406 206.518 107.256 207.382 107.256C208.678 107.256 209.728 107.574 210.532 108.21C211.348 108.834 211.798 109.71 211.882 110.838H209.11C209.086 110.406 208.9 110.052 208.552 109.776C208.216 109.488 207.766 109.344 207.202 109.344C206.71 109.344 206.314 109.47 206.014 109.722C205.726 109.974 205.582 110.34 205.582 110.82C205.582 111.156 205.69 111.438 205.906 111.666C206.134 111.882 206.41 112.062 206.734 112.206C207.07 112.338 207.538 112.494 208.138 112.674C208.954 112.914 209.62 113.154 210.136 113.394C210.652 113.634 211.096 113.994 211.468 114.474C211.84 114.954 212.026 115.584 212.026 116.364C212.026 117.036 211.852 117.66 211.504 118.236C211.156 118.812 210.646 119.274 209.974 119.622C209.302 119.958 208.504 120.126 207.58 120.126ZM217.145 112.098V116.922C217.145 117.258 217.223 117.504 217.379 117.66C217.547 117.804 217.823 117.876 218.207 117.876H219.377V120H217.793C215.669 120 214.607 118.968 214.607 116.904V112.098H213.419V110.028H214.607V107.562H217.145V110.028H219.377V112.098H217.145ZM220.541 114.978C220.541 113.97 220.739 113.076 221.135 112.296C221.543 111.516 222.089 110.916 222.773 110.496C223.469 110.076 224.243 109.866 225.095 109.866C225.839 109.866 226.487 110.016 227.039 110.316C227.603 110.616 228.053 110.994 228.389 111.45V110.028H230.927V120H228.389V118.542C228.065 119.01 227.615 119.4 227.039 119.712C226.475 120.012 225.821 120.162 225.077 120.162C224.237 120.162 223.469 119.946 222.773 119.514C222.089 119.082 221.543 118.476 221.135 117.696C220.739 116.904 220.541 115.998 220.541 114.978ZM228.389 115.014C228.389 114.402 228.269 113.88 228.029 113.448C227.789 113.004 227.465 112.668 227.057 112.44C226.649 112.2 226.211 112.08 225.743 112.08C225.275 112.08 224.843 112.194 224.447 112.422C224.051 112.65 223.727 112.986 223.475 113.43C223.235 113.862 223.115 114.378 223.115 114.978C223.115 115.578 223.235 116.106 223.475 116.562C223.727 117.006 224.051 117.348 224.447 117.588C224.855 117.828 225.287 117.948 225.743 117.948C226.211 117.948 226.649 117.834 227.057 117.606C227.465 117.366 227.789 117.03 228.029 116.598C228.269 116.154 228.389 115.626 228.389 115.014ZM235.908 111.576C236.232 111.048 236.652 110.634 237.168 110.334C237.696 110.034 238.296 109.884 238.968 109.884V112.53H238.302C237.51 112.53 236.91 112.716 236.502 113.088C236.106 113.46 235.908 114.108 235.908 115.032V120H233.388V110.028H235.908V111.576ZM243.6 112.098V116.922C243.6 117.258 243.678 117.504 243.834 117.66C244.002 117.804 244.278 117.876 244.662 117.876H245.832V120H244.248C242.124 120 241.062 118.968 241.062 116.904V112.098H239.874V110.028H241.062V107.562H243.6V110.028H245.832V112.098H243.6ZM255.749 120.162C254.933 120.162 254.201 120.018 253.553 119.73C252.905 119.43 252.389 119.028 252.005 118.524C251.633 118.02 251.429 117.462 251.393 116.85H253.931C253.979 117.234 254.165 117.552 254.489 117.804C254.825 118.056 255.239 118.182 255.731 118.182C256.211 118.182 256.583 118.086 256.847 117.894C257.123 117.702 257.261 117.456 257.261 117.156C257.261 116.832 257.093 116.592 256.757 116.436C256.433 116.268 255.911 116.088 255.191 115.896C254.447 115.716 253.835 115.53 253.355 115.338C252.887 115.146 252.479 114.852 252.131 114.456C251.795 114.06 251.627 113.526 251.627 112.854C251.627 112.302 251.783 111.798 252.095 111.342C252.419 110.886 252.875 110.526 253.463 110.262C254.063 109.998 254.765 109.866 255.569 109.866C256.757 109.866 257.705 110.166 258.413 110.766C259.121 111.354 259.511 112.152 259.583 113.16H257.171C257.135 112.764 256.967 112.452 256.667 112.224C256.379 111.984 255.989 111.864 255.497 111.864C255.041 111.864 254.687 111.948 254.435 112.116C254.195 112.284 254.075 112.518 254.075 112.818C254.075 113.154 254.243 113.412 254.579 113.592C254.915 113.76 255.437 113.934 256.145 114.114C256.865 114.294 257.459 114.48 257.927 114.672C258.395 114.864 258.797 115.164 259.133 115.572C259.481 115.968 259.661 116.496 259.673 117.156C259.673 117.732 259.511 118.248 259.187 118.704C258.875 119.16 258.419 119.52 257.819 119.784C257.231 120.036 256.541 120.162 255.749 120.162ZM267.358 109.884C268.114 109.884 268.786 110.052 269.374 110.388C269.962 110.712 270.418 111.198 270.742 111.846C271.078 112.482 271.246 113.25 271.246 114.15V120H268.726V114.492C268.726 113.7 268.528 113.094 268.132 112.674C267.736 112.242 267.196 112.026 266.512 112.026C265.816 112.026 265.264 112.242 264.856 112.674C264.46 113.094 264.262 113.7 264.262 114.492V120H261.742V106.68H264.262V111.27C264.586 110.838 265.018 110.502 265.558 110.262C266.098 110.01 266.698 109.884 267.358 109.884ZM278.07 120.162C277.11 120.162 276.246 119.952 275.478 119.532C274.71 119.1 274.104 118.494 273.66 117.714C273.228 116.934 273.012 116.034 273.012 115.014C273.012 113.994 273.234 113.094 273.678 112.314C274.134 111.534 274.752 110.934 275.532 110.514C276.312 110.082 277.182 109.866 278.142 109.866C279.102 109.866 279.972 110.082 280.752 110.514C281.532 110.934 282.144 111.534 282.588 112.314C283.044 113.094 283.272 113.994 283.272 115.014C283.272 116.034 283.038 116.934 282.57 117.714C282.114 118.494 281.49 119.1 280.698 119.532C279.918 119.952 279.042 120.162 278.07 120.162ZM278.07 117.966C278.526 117.966 278.952 117.858 279.348 117.642C279.756 117.414 280.08 117.078 280.32 116.634C280.56 116.19 280.68 115.65 280.68 115.014C280.68 114.066 280.428 113.34 279.924 112.836C279.432 112.32 278.826 112.062 278.106 112.062C277.386 112.062 276.78 112.32 276.288 112.836C275.808 113.34 275.568 114.066 275.568 115.014C275.568 115.962 275.802 116.694 276.27 117.21C276.75 117.714 277.35 117.966 278.07 117.966ZM287.641 111.468C287.965 111.012 288.409 110.634 288.973 110.334C289.549 110.022 290.203 109.866 290.935 109.866C291.787 109.866 292.555 110.076 293.239 110.496C293.935 110.916 294.481 111.516 294.877 112.296C295.285 113.064 295.489 113.958 295.489 114.978C295.489 115.998 295.285 116.904 294.877 117.696C294.481 118.476 293.935 119.082 293.239 119.514C292.555 119.946 291.787 120.162 290.935 120.162C290.203 120.162 289.555 120.012 288.991 119.712C288.439 119.412 287.989 119.034 287.641 118.578V124.752H285.121V110.028H287.641V111.468ZM292.915 114.978C292.915 114.378 292.789 113.862 292.537 113.43C292.297 112.986 291.973 112.65 291.565 112.422C291.169 112.194 290.737 112.08 290.269 112.08C289.813 112.08 289.381 112.2 288.973 112.44C288.577 112.668 288.253 113.004 288.001 113.448C287.761 113.892 287.641 114.414 287.641 115.014C287.641 115.614 287.761 116.136 288.001 116.58C288.253 117.024 288.577 117.366 288.973 117.606C289.381 117.834 289.813 117.948 290.269 117.948C290.737 117.948 291.169 117.828 291.565 117.588C291.973 117.348 292.297 117.006 292.537 116.562C292.789 116.118 292.915 115.59 292.915 114.978ZM299.84 111.468C300.164 111.012 300.608 110.634 301.172 110.334C301.748 110.022 302.402 109.866 303.134 109.866C303.986 109.866 304.754 110.076 305.438 110.496C306.134 110.916 306.68 111.516 307.076 112.296C307.484 113.064 307.688 113.958 307.688 114.978C307.688 115.998 307.484 116.904 307.076 117.696C306.68 118.476 306.134 119.082 305.438 119.514C304.754 119.946 303.986 120.162 303.134 120.162C302.402 120.162 301.754 120.012 301.19 119.712C300.638 119.412 300.188 119.034 299.84 118.578V124.752H297.32V110.028H299.84V111.468ZM305.114 114.978C305.114 114.378 304.988 113.862 304.736 113.43C304.496 112.986 304.172 112.65 303.764 112.422C303.368 112.194 302.936 112.08 302.468 112.08C302.012 112.08 301.58 112.2 301.172 112.44C300.776 112.668 300.452 113.004 300.2 113.448C299.96 113.892 299.84 114.414 299.84 115.014C299.84 115.614 299.96 116.136 300.2 116.58C300.452 117.024 300.776 117.366 301.172 117.606C301.58 117.834 302.012 117.948 302.468 117.948C302.936 117.948 303.368 117.828 303.764 117.588C304.172 117.348 304.496 117.006 304.736 116.562C304.988 116.118 305.114 115.59 305.114 114.978ZM310.797 108.84C310.353 108.84 309.981 108.702 309.681 108.426C309.393 108.138 309.249 107.784 309.249 107.364C309.249 106.944 309.393 106.596 309.681 106.32C309.981 106.032 310.353 105.888 310.797 105.888C311.241 105.888 311.607 106.032 311.895 106.32C312.195 106.596 312.345 106.944 312.345 107.364C312.345 107.784 312.195 108.138 311.895 108.426C311.607 108.702 311.241 108.84 310.797 108.84ZM312.039 110.028V120H309.519V110.028H312.039ZM320.055 109.884C321.243 109.884 322.203 110.262 322.935 111.018C323.667 111.762 324.033 112.806 324.033 114.15V120H321.513V114.492C321.513 113.7 321.315 113.094 320.919 112.674C320.523 112.242 319.983 112.026 319.299 112.026C318.603 112.026 318.051 112.242 317.643 112.674C317.247 113.094 317.049 113.7 317.049 114.492V120H314.529V110.028H317.049V111.27C317.385 110.838 317.811 110.502 318.327 110.262C318.855 110.01 319.431 109.884 320.055 109.884ZM330.336 109.866C331.08 109.866 331.734 110.016 332.298 110.316C332.862 110.604 333.306 110.982 333.63 111.45V110.028H336.168V120.072C336.168 120.996 335.982 121.818 335.61 122.538C335.238 123.27 334.68 123.846 333.936 124.266C333.192 124.698 332.292 124.914 331.236 124.914C329.82 124.914 328.656 124.584 327.744 123.924C326.844 123.264 326.334 122.364 326.214 121.224H328.716C328.848 121.68 329.13 122.04 329.562 122.304C330.006 122.58 330.54 122.718 331.164 122.718C331.896 122.718 332.49 122.496 332.946 122.052C333.402 121.62 333.63 120.96 333.63 120.072V118.524C333.306 118.992 332.856 119.382 332.28 119.694C331.716 120.006 331.068 120.162 330.336 120.162C329.496 120.162 328.728 119.946 328.032 119.514C327.336 119.082 326.784 118.476 326.375 117.696C325.979 116.904 325.781 115.998 325.781 114.978C325.781 113.97 325.979 113.076 326.375 112.296C326.784 111.516 327.33 110.916 328.014 110.496C328.71 110.076 329.484 109.866 330.336 109.866ZM333.63 115.014C333.63 114.402 333.51 113.88 333.27 113.448C333.03 113.004 332.706 112.668 332.298 112.44C331.89 112.2 331.452 112.08 330.984 112.08C330.516 112.08 330.084 112.194 329.688 112.422C329.292 112.65 328.968 112.986 328.716 113.43C328.476 113.862 328.356 114.378 328.356 114.978C328.356 115.578 328.476 116.106 328.716 116.562C328.968 117.006 329.292 117.348 329.688 117.588C330.096 117.828 330.528 117.948 330.984 117.948C331.452 117.948 331.89 117.834 332.298 117.606C332.706 117.366 333.03 117.03 333.27 116.598C333.51 116.154 333.63 115.626 333.63 115.014ZM207.67 148.162C206.71 148.162 205.846 147.952 205.078 147.532C204.31 147.1 203.704 146.494 203.26 145.714C202.828 144.934 202.612 144.034 202.612 143.014C202.612 141.994 202.834 141.094 203.278 140.314C203.734 139.534 204.352 138.934 205.132 138.514C205.912 138.082 206.782 137.866 207.742 137.866C208.702 137.866 209.572 138.082 210.352 138.514C211.132 138.934 211.744 139.534 212.188 140.314C212.644 141.094 212.872 141.994 212.872 143.014C212.872 144.034 212.638 144.934 212.17 145.714C211.714 146.494 211.09 147.1 210.298 147.532C209.518 147.952 208.642 148.162 207.67 148.162ZM207.67 145.966C208.126 145.966 208.552 145.858 208.948 145.642C209.356 145.414 209.68 145.078 209.92 144.634C210.16 144.19 210.28 143.65 210.28 143.014C210.28 142.066 210.028 141.34 209.524 140.836C209.032 140.32 208.426 140.062 207.706 140.062C206.986 140.062 206.38 140.32 205.888 140.836C205.408 141.34 205.168 142.066 205.168 143.014C205.168 143.962 205.402 144.694 205.87 145.21C206.35 145.714 206.95 145.966 207.67 145.966ZM218.879 145.678L221.399 138.028H224.081L220.391 148H217.331L213.659 138.028H216.359L218.879 145.678ZM234.766 142.798C234.766 143.158 234.742 143.482 234.694 143.77H227.404C227.464 144.49 227.716 145.054 228.16 145.462C228.604 145.87 229.15 146.074 229.798 146.074C230.734 146.074 231.4 145.672 231.796 144.868H234.514C234.226 145.828 233.674 146.62 232.858 147.244C232.042 147.856 231.04 148.162 229.852 148.162C228.892 148.162 228.028 147.952 227.26 147.532C226.504 147.1 225.91 146.494 225.478 145.714C225.058 144.934 224.848 144.034 224.848 143.014C224.848 141.982 225.058 141.076 225.478 140.296C225.898 139.516 226.486 138.916 227.242 138.496C227.998 138.076 228.868 137.866 229.852 137.866C230.8 137.866 231.646 138.07 232.39 138.478C233.146 138.886 233.728 139.468 234.136 140.224C234.556 140.968 234.766 141.826 234.766 142.798ZM232.156 142.078C232.144 141.43 231.91 140.914 231.454 140.53C230.998 140.134 230.44 139.936 229.78 139.936C229.156 139.936 228.628 140.128 228.196 140.512C227.776 140.884 227.518 141.406 227.422 142.078H232.156ZM239.125 139.576C239.449 139.048 239.869 138.634 240.385 138.334C240.913 138.034 241.513 137.884 242.185 137.884V140.53H241.519C240.727 140.53 240.127 140.716 239.719 141.088C239.323 141.46 239.125 142.108 239.125 143.032V148H236.605V138.028H239.125V139.576ZM247.524 142.978C247.524 141.97 247.722 141.076 248.118 140.296C248.526 139.516 249.072 138.916 249.756 138.496C250.452 138.076 251.226 137.866 252.078 137.866C252.822 137.866 253.47 138.016 254.022 138.316C254.586 138.616 255.036 138.994 255.372 139.45V138.028H257.91V148H255.372V146.542C255.048 147.01 254.598 147.4 254.022 147.712C253.458 148.012 252.804 148.162 252.06 148.162C251.22 148.162 250.452 147.946 249.756 147.514C249.072 147.082 248.526 146.476 248.118 145.696C247.722 144.904 247.524 143.998 247.524 142.978ZM255.372 143.014C255.372 142.402 255.252 141.88 255.012 141.448C254.772 141.004 254.448 140.668 254.04 140.44C253.632 140.2 253.194 140.08 252.726 140.08C252.258 140.08 251.826 140.194 251.43 140.422C251.034 140.65 250.71 140.986 250.458 141.43C250.218 141.862 250.098 142.378 250.098 142.978C250.098 143.578 250.218 144.106 250.458 144.562C250.71 145.006 251.034 145.348 251.43 145.588C251.838 145.828 252.27 145.948 252.726 145.948C253.194 145.948 253.632 145.834 254.04 145.606C254.448 145.366 254.772 145.03 255.012 144.598C255.252 144.154 255.372 143.626 255.372 143.014ZM268.818 145.678L271.338 138.028H274.02L270.33 148H267.27L263.598 138.028H266.298L268.818 145.678ZM276.713 136.84C276.269 136.84 275.897 136.702 275.597 136.426C275.309 136.138 275.165 135.784 275.165 135.364C275.165 134.944 275.309 134.596 275.597 134.32C275.897 134.032 276.269 133.888 276.713 133.888C277.157 133.888 277.523 134.032 277.811 134.32C278.111 134.596 278.261 134.944 278.261 135.364C278.261 135.784 278.111 136.138 277.811 136.426C277.523 136.702 277.157 136.84 276.713 136.84ZM277.955 138.028V148H275.435V138.028H277.955ZM279.797 142.978C279.797 141.97 279.995 141.076 280.391 140.296C280.799 139.516 281.351 138.916 282.047 138.496C282.743 138.076 283.517 137.866 284.369 137.866C285.017 137.866 285.635 138.01 286.223 138.298C286.811 138.574 287.279 138.946 287.627 139.414V134.68H290.183V148H287.627V146.524C287.315 147.016 286.877 147.412 286.313 147.712C285.749 148.012 285.095 148.162 284.351 148.162C283.511 148.162 282.743 147.946 282.047 147.514C281.351 147.082 280.799 146.476 280.391 145.696C279.995 144.904 279.797 143.998 279.797 142.978ZM287.645 143.014C287.645 142.402 287.525 141.88 287.285 141.448C287.045 141.004 286.721 140.668 286.313 140.44C285.905 140.2 285.467 140.08 284.999 140.08C284.531 140.08 284.099 140.194 283.703 140.422C283.307 140.65 282.983 140.986 282.731 141.43C282.491 141.862 282.371 142.378 282.371 142.978C282.371 143.578 282.491 144.106 282.731 144.562C282.983 145.006 283.307 145.348 283.703 145.588C284.111 145.828 284.543 145.948 284.999 145.948C285.467 145.948 285.905 145.834 286.313 145.606C286.721 145.366 287.045 145.03 287.285 144.598C287.525 144.154 287.645 143.626 287.645 143.014ZM301.914 142.798C301.914 143.158 301.89 143.482 301.842 143.77H294.552C294.612 144.49 294.864 145.054 295.308 145.462C295.752 145.87 296.298 146.074 296.946 146.074C297.882 146.074 298.548 145.672 298.944 144.868H301.662C301.374 145.828 300.822 146.62 300.006 147.244C299.19 147.856 298.188 148.162 297 148.162C296.04 148.162 295.176 147.952 294.408 147.532C293.652 147.1 293.058 146.494 292.626 145.714C292.206 144.934 291.996 144.034 291.996 143.014C291.996 141.982 292.206 141.076 292.626 140.296C293.046 139.516 293.634 138.916 294.39 138.496C295.146 138.076 296.016 137.866 297 137.866C297.948 137.866 298.794 138.07 299.538 138.478C300.294 138.886 300.876 139.468 301.284 140.224C301.704 140.968 301.914 141.826 301.914 142.798ZM299.304 142.078C299.292 141.43 299.058 140.914 298.602 140.53C298.146 140.134 297.588 139.936 296.928 139.936C296.304 139.936 295.776 140.128 295.344 140.512C294.924 140.884 294.666 141.406 294.57 142.078H299.304ZM308.182 148.162C307.222 148.162 306.358 147.952 305.59 147.532C304.822 147.1 304.216 146.494 303.772 145.714C303.34 144.934 303.124 144.034 303.124 143.014C303.124 141.994 303.346 141.094 303.79 140.314C304.246 139.534 304.864 138.934 305.644 138.514C306.424 138.082 307.294 137.866 308.254 137.866C309.214 137.866 310.084 138.082 310.864 138.514C311.644 138.934 312.256 139.534 312.7 140.314C313.156 141.094 313.384 141.994 313.384 143.014C313.384 144.034 313.15 144.934 312.682 145.714C312.226 146.494 311.602 147.1 310.81 147.532C310.03 147.952 309.154 148.162 308.182 148.162ZM308.182 145.966C308.638 145.966 309.064 145.858 309.46 145.642C309.868 145.414 310.192 145.078 310.432 144.634C310.672 144.19 310.792 143.65 310.792 143.014C310.792 142.066 310.54 141.34 310.036 140.836C309.544 140.32 308.938 140.062 308.218 140.062C307.498 140.062 306.892 140.32 306.4 140.836C305.92 141.34 305.68 142.066 305.68 143.014C305.68 143.962 305.914 144.694 306.382 145.21C306.862 145.714 307.462 145.966 308.182 145.966ZM318.873 143.014C318.873 141.982 319.083 141.082 319.503 140.314C319.923 139.534 320.505 138.934 321.249 138.514C321.993 138.082 322.845 137.866 323.805 137.866C325.041 137.866 326.061 138.178 326.865 138.802C327.681 139.414 328.227 140.278 328.503 141.394H325.785C325.641 140.962 325.395 140.626 325.047 140.386C324.711 140.134 324.291 140.008 323.787 140.008C323.067 140.008 322.497 140.272 322.077 140.8C321.657 141.316 321.447 142.054 321.447 143.014C321.447 143.962 321.657 144.7 322.077 145.228C322.497 145.744 323.067 146.002 323.787 146.002C324.807 146.002 325.473 145.546 325.785 144.634H328.503C328.227 145.714 327.681 146.572 326.865 147.208C326.049 147.844 325.029 148.162 323.805 148.162C322.845 148.162 321.993 147.952 321.249 147.532C320.505 147.1 319.923 146.5 319.503 145.732C319.083 144.952 318.873 144.046 318.873 143.014ZM329.701 142.978C329.701 141.97 329.899 141.076 330.295 140.296C330.703 139.516 331.249 138.916 331.933 138.496C332.629 138.076 333.403 137.866 334.255 137.866C334.999 137.866 335.647 138.016 336.199 138.316C336.763 138.616 337.213 138.994 337.549 139.45V138.028H340.087V148H337.549V146.542C337.225 147.01 336.775 147.4 336.199 147.712C335.635 148.012 334.981 148.162 334.237 148.162C333.397 148.162 332.629 147.946 331.933 147.514C331.249 147.082 330.703 146.476 330.295 145.696C329.899 144.904 329.701 143.998 329.701 142.978ZM337.549 143.014C337.549 142.402 337.429 141.88 337.189 141.448C336.949 141.004 336.625 140.668 336.217 140.44C335.809 140.2 335.371 140.08 334.903 140.08C334.435 140.08 334.003 140.194 333.607 140.422C333.211 140.65 332.887 140.986 332.635 141.43C332.395 141.862 332.275 142.378 332.275 142.978C332.275 143.578 332.395 144.106 332.635 144.562C332.887 145.006 333.211 145.348 333.607 145.588C334.015 145.828 334.447 145.948 334.903 145.948C335.371 145.948 335.809 145.834 336.217 145.606C336.625 145.366 336.949 145.03 337.189 144.598C337.429 144.154 337.549 143.626 337.549 143.014ZM345.069 134.68V148H342.549V134.68H345.069ZM350.078 134.68V148H347.558V134.68H350.078Z" fill="#666666"/>
<rect x="198" y="168" width="168" height="12" fill="#F6F6F6"/>
<rect x="198" y="188" width="149" height="6" fill="#F6F6F6"/>
<rect x="198" y="202" width="149" height="6" fill="#F6F6F6"/>
<rect x="202" y="269" width="176" height="32" rx="3" fill="#5E41A7"/>
<path d="M246.72 289.084C246.136 289.084 245.608 288.984 245.136 288.784C244.672 288.584 244.304 288.296 244.032 287.92C243.76 287.544 243.62 287.1 243.612 286.588H245.412C245.436 286.932 245.556 287.204 245.772 287.404C245.996 287.604 246.3 287.704 246.684 287.704C247.076 287.704 247.384 287.612 247.608 287.428C247.832 287.236 247.944 286.988 247.944 286.684C247.944 286.436 247.868 286.232 247.716 286.072C247.564 285.912 247.372 285.788 247.14 285.7C246.916 285.604 246.604 285.5 246.204 285.388C245.66 285.228 245.216 285.072 244.872 284.92C244.536 284.76 244.244 284.524 243.996 284.212C243.756 283.892 243.636 283.468 243.636 282.94C243.636 282.444 243.76 282.012 244.008 281.644C244.256 281.276 244.604 280.996 245.052 280.804C245.5 280.604 246.012 280.504 246.588 280.504C247.452 280.504 248.152 280.716 248.688 281.14C249.232 281.556 249.532 282.14 249.588 282.892H247.74C247.724 282.604 247.6 282.368 247.368 282.184C247.144 281.992 246.844 281.896 246.468 281.896C246.14 281.896 245.876 281.98 245.676 282.148C245.484 282.316 245.388 282.56 245.388 282.88C245.388 283.104 245.46 283.292 245.604 283.444C245.756 283.588 245.94 283.708 246.156 283.804C246.38 283.892 246.692 283.996 247.092 284.116C247.636 284.276 248.08 284.436 248.424 284.596C248.768 284.756 249.064 284.996 249.312 285.316C249.56 285.636 249.684 286.056 249.684 286.576C249.684 287.024 249.568 287.44 249.336 287.824C249.104 288.208 248.764 288.516 248.316 288.748C247.868 288.972 247.336 289.084 246.72 289.084ZM253.097 283.732V286.948C253.097 287.172 253.149 287.336 253.253 287.44C253.365 287.536 253.549 287.584 253.805 287.584H254.585V289H253.529C252.113 289 251.405 288.312 251.405 286.936V283.732H250.613V282.352H251.405V280.708H253.097V282.352H254.585V283.732H253.097ZM255.361 285.652C255.361 284.98 255.493 284.384 255.757 283.864C256.029 283.344 256.393 282.944 256.849 282.664C257.313 282.384 257.829 282.244 258.397 282.244C258.893 282.244 259.325 282.344 259.693 282.544C260.069 282.744 260.369 282.996 260.593 283.3V282.352H262.285V289H260.593V288.028C260.377 288.34 260.077 288.6 259.693 288.808C259.317 289.008 258.881 289.108 258.385 289.108C257.825 289.108 257.313 288.964 256.849 288.676C256.393 288.388 256.029 287.984 255.757 287.464C255.493 286.936 255.361 286.332 255.361 285.652ZM260.593 285.676C260.593 285.268 260.513 284.92 260.353 284.632C260.193 284.336 259.977 284.112 259.705 283.96C259.433 283.8 259.141 283.72 258.829 283.72C258.517 283.72 258.229 283.796 257.965 283.948C257.701 284.1 257.485 284.324 257.317 284.62C257.157 284.908 257.077 285.252 257.077 285.652C257.077 286.052 257.157 286.404 257.317 286.708C257.485 287.004 257.701 287.232 257.965 287.392C258.237 287.552 258.525 287.632 258.829 287.632C259.141 287.632 259.433 287.556 259.705 287.404C259.977 287.244 260.193 287.02 260.353 286.732C260.513 286.436 260.593 286.084 260.593 285.676ZM265.606 283.384C265.822 283.032 266.102 282.756 266.446 282.556C266.798 282.356 267.198 282.256 267.646 282.256V284.02H267.202C266.674 284.02 266.274 284.144 266.002 284.392C265.738 284.64 265.606 285.072 265.606 285.688V289H263.926V282.352H265.606V283.384ZM270.733 283.732V286.948C270.733 287.172 270.785 287.336 270.889 287.44C271.001 287.536 271.185 287.584 271.441 287.584H272.221V289H271.165C269.749 289 269.041 288.312 269.041 286.936V283.732H268.249V282.352H269.041V280.708H270.733V282.352H272.221V283.732H270.733ZM275.857 285.652C275.857 284.98 275.989 284.384 276.253 283.864C276.525 283.344 276.889 282.944 277.345 282.664C277.809 282.384 278.325 282.244 278.893 282.244C279.389 282.244 279.821 282.344 280.189 282.544C280.565 282.744 280.865 282.996 281.089 283.3V282.352H282.781V289H281.089V288.028C280.873 288.34 280.573 288.6 280.189 288.808C279.813 289.008 279.377 289.108 278.881 289.108C278.321 289.108 277.809 288.964 277.345 288.676C276.889 288.388 276.525 287.984 276.253 287.464C275.989 286.936 275.857 286.332 275.857 285.652ZM281.089 285.676C281.089 285.268 281.009 284.92 280.849 284.632C280.689 284.336 280.473 284.112 280.201 283.96C279.929 283.8 279.637 283.72 279.325 283.72C279.013 283.72 278.725 283.796 278.461 283.948C278.197 284.1 277.981 284.324 277.813 284.62C277.653 284.908 277.573 285.252 277.573 285.652C277.573 286.052 277.653 286.404 277.813 286.708C277.981 287.004 278.197 287.232 278.461 287.392C278.733 287.552 279.021 287.632 279.325 287.632C279.637 287.632 279.929 287.556 280.201 287.404C280.473 287.244 280.689 287.02 280.849 286.732C281.009 286.436 281.089 286.084 281.089 285.676ZM286.849 285.676C286.849 284.988 286.989 284.388 287.269 283.876C287.549 283.356 287.937 282.956 288.433 282.676C288.929 282.388 289.497 282.244 290.137 282.244C290.961 282.244 291.641 282.452 292.177 282.868C292.721 283.276 293.085 283.852 293.269 284.596H291.457C291.361 284.308 291.197 284.084 290.965 283.924C290.741 283.756 290.461 283.672 290.125 283.672C289.645 283.672 289.265 283.848 288.985 284.2C288.705 284.544 288.565 285.036 288.565 285.676C288.565 286.308 288.705 286.8 288.985 287.152C289.265 287.496 289.645 287.668 290.125 287.668C290.805 287.668 291.249 287.364 291.457 286.756H293.269C293.085 287.476 292.721 288.048 292.177 288.472C291.633 288.896 290.953 289.108 290.137 289.108C289.497 289.108 288.929 288.968 288.433 288.688C287.937 288.4 287.549 288 287.269 287.488C286.989 286.968 286.849 286.364 286.849 285.676ZM294.068 285.652C294.068 284.98 294.2 284.384 294.464 283.864C294.736 283.344 295.1 282.944 295.556 282.664C296.02 282.384 296.536 282.244 297.104 282.244C297.6 282.244 298.032 282.344 298.4 282.544C298.776 282.744 299.076 282.996 299.3 283.3V282.352H300.992V289H299.3V288.028C299.084 288.34 298.784 288.6 298.4 288.808C298.024 289.008 297.588 289.108 297.092 289.108C296.532 289.108 296.02 288.964 295.556 288.676C295.1 288.388 294.736 287.984 294.464 287.464C294.2 286.936 294.068 286.332 294.068 285.652ZM299.3 285.676C299.3 285.268 299.22 284.92 299.06 284.632C298.9 284.336 298.684 284.112 298.412 283.96C298.14 283.8 297.848 283.72 297.536 283.72C297.224 283.72 296.936 283.796 296.672 283.948C296.408 284.1 296.192 284.324 296.024 284.62C295.864 284.908 295.784 285.252 295.784 285.652C295.784 286.052 295.864 286.404 296.024 286.708C296.192 287.004 296.408 287.232 296.672 287.392C296.944 287.552 297.232 287.632 297.536 287.632C297.848 287.632 298.14 287.556 298.412 287.404C298.684 287.244 298.9 287.02 299.06 286.732C299.22 286.436 299.3 286.084 299.3 285.676ZM304.313 280.12V289H302.633V280.12H304.313ZM307.653 280.12V289H305.973V280.12H307.653ZM315.856 282.256C316.648 282.256 317.288 282.508 317.776 283.012C318.264 283.508 318.508 284.204 318.508 285.1V289H316.828V285.328C316.828 284.8 316.696 284.396 316.432 284.116C316.168 283.828 315.808 283.684 315.352 283.684C314.888 283.684 314.52 283.828 314.248 284.116C313.984 284.396 313.852 284.8 313.852 285.328V289H312.172V282.352H313.852V283.18C314.076 282.892 314.36 282.668 314.704 282.508C315.056 282.34 315.44 282.256 315.856 282.256ZM323.057 289.108C322.417 289.108 321.841 288.968 321.329 288.688C320.817 288.4 320.413 287.996 320.117 287.476C319.829 286.956 319.685 286.356 319.685 285.676C319.685 284.996 319.833 284.396 320.129 283.876C320.433 283.356 320.845 282.956 321.365 282.676C321.885 282.388 322.465 282.244 323.105 282.244C323.745 282.244 324.325 282.388 324.845 282.676C325.365 282.956 325.773 283.356 326.069 283.876C326.373 284.396 326.525 284.996 326.525 285.676C326.525 286.356 326.369 286.956 326.057 287.476C325.753 287.996 325.337 288.4 324.809 288.688C324.289 288.968 323.705 289.108 323.057 289.108ZM323.057 287.644C323.361 287.644 323.645 287.572 323.909 287.428C324.181 287.276 324.397 287.052 324.557 286.756C324.717 286.46 324.797 286.1 324.797 285.676C324.797 285.044 324.629 284.56 324.293 284.224C323.965 283.88 323.561 283.708 323.081 283.708C322.601 283.708 322.197 283.88 321.869 284.224C321.549 284.56 321.389 285.044 321.389 285.676C321.389 286.308 321.545 286.796 321.857 287.14C322.177 287.476 322.577 287.644 323.057 287.644ZM336.974 282.352L335.03 289H333.218L332.006 284.356L330.794 289H328.97L327.014 282.352H328.718L329.894 287.416L331.166 282.352H332.942L334.19 287.404L335.366 282.352H336.974Z" fill="white"/>
<path d="M240.648 327.084C240.088 327.084 239.584 326.988 239.136 326.796C238.688 326.596 238.336 326.316 238.08 325.956C237.824 325.596 237.696 325.176 237.696 324.696H239.16C239.192 325.056 239.332 325.352 239.58 325.584C239.836 325.816 240.192 325.932 240.648 325.932C241.12 325.932 241.488 325.82 241.752 325.596C242.016 325.364 242.148 325.068 242.148 324.708C242.148 324.428 242.064 324.2 241.896 324.024C241.736 323.848 241.532 323.712 241.284 323.616C241.044 323.52 240.708 323.416 240.276 323.304C239.732 323.16 239.288 323.016 238.944 322.872C238.608 322.72 238.32 322.488 238.08 322.176C237.84 321.864 237.72 321.448 237.72 320.928C237.72 320.448 237.84 320.028 238.08 319.668C238.32 319.308 238.656 319.032 239.088 318.84C239.52 318.648 240.02 318.552 240.588 318.552C241.396 318.552 242.056 318.756 242.568 319.164C243.088 319.564 243.376 320.116 243.432 320.82H241.92C241.896 320.516 241.752 320.256 241.488 320.04C241.224 319.824 240.876 319.716 240.444 319.716C240.052 319.716 239.732 319.816 239.484 320.016C239.236 320.216 239.112 320.504 239.112 320.88C239.112 321.136 239.188 321.348 239.34 321.516C239.5 321.676 239.7 321.804 239.94 321.9C240.18 321.996 240.508 322.1 240.924 322.212C241.476 322.364 241.924 322.516 242.268 322.668C242.62 322.82 242.916 323.056 243.156 323.376C243.404 323.688 243.528 324.108 243.528 324.636C243.528 325.06 243.412 325.46 243.18 325.836C242.956 326.212 242.624 326.516 242.184 326.748C241.752 326.972 241.24 327.084 240.648 327.084ZM244.686 323.688C244.686 323.008 244.822 322.412 245.094 321.9C245.374 321.38 245.758 320.98 246.246 320.7C246.734 320.42 247.294 320.28 247.926 320.28C248.726 320.28 249.386 320.472 249.906 320.856C250.434 321.232 250.79 321.772 250.974 322.476H249.498C249.378 322.148 249.186 321.892 248.922 321.708C248.658 321.524 248.326 321.432 247.926 321.432C247.366 321.432 246.918 321.632 246.582 322.032C246.254 322.424 246.09 322.976 246.09 323.688C246.09 324.4 246.254 324.956 246.582 325.356C246.918 325.756 247.366 325.956 247.926 325.956C248.718 325.956 249.242 325.608 249.498 324.912H250.974C250.782 325.584 250.422 326.12 249.894 326.52C249.366 326.912 248.71 327.108 247.926 327.108C247.294 327.108 246.734 326.968 246.246 326.688C245.758 326.4 245.374 326 245.094 325.488C244.822 324.968 244.686 324.368 244.686 323.688ZM255.758 320.28C256.262 320.28 256.71 320.388 257.102 320.604C257.502 320.82 257.814 321.14 258.038 321.564C258.27 321.988 258.386 322.5 258.386 323.1V327H257.03V323.304C257.03 322.712 256.882 322.26 256.586 321.948C256.29 321.628 255.886 321.468 255.374 321.468C254.862 321.468 254.454 321.628 254.15 321.948C253.854 322.26 253.706 322.712 253.706 323.304V327H252.338V318.12H253.706V321.156C253.938 320.876 254.23 320.66 254.582 320.508C254.942 320.356 255.334 320.28 255.758 320.28ZM266.19 323.532C266.19 323.78 266.174 324.004 266.142 324.204H261.09C261.13 324.732 261.326 325.156 261.678 325.476C262.03 325.796 262.462 325.956 262.974 325.956C263.71 325.956 264.23 325.648 264.534 325.032H266.01C265.81 325.64 265.446 326.14 264.918 326.532C264.398 326.916 263.75 327.108 262.974 327.108C262.342 327.108 261.774 326.968 261.27 326.688C260.774 326.4 260.382 326 260.094 325.488C259.814 324.968 259.674 324.368 259.674 323.688C259.674 323.008 259.81 322.412 260.082 321.9C260.362 321.38 260.75 320.98 261.246 320.7C261.75 320.42 262.326 320.28 262.974 320.28C263.598 320.28 264.154 320.416 264.642 320.688C265.13 320.96 265.51 321.344 265.782 321.84C266.054 322.328 266.19 322.892 266.19 323.532ZM264.762 323.1C264.754 322.596 264.574 322.192 264.222 321.888C263.87 321.584 263.434 321.432 262.914 321.432C262.442 321.432 262.038 321.584 261.702 321.888C261.366 322.184 261.166 322.588 261.102 323.1H264.762ZM267.081 323.664C267.081 323 267.217 322.412 267.489 321.9C267.769 321.388 268.145 320.992 268.617 320.712C269.097 320.424 269.629 320.28 270.213 320.28C270.645 320.28 271.069 320.376 271.485 320.568C271.909 320.752 272.245 321 272.493 321.312V318.12H273.873V327H272.493V326.004C272.269 326.324 271.957 326.588 271.557 326.796C271.165 327.004 270.713 327.108 270.201 327.108C269.625 327.108 269.097 326.964 268.617 326.676C268.145 326.38 267.769 325.972 267.489 325.452C267.217 324.924 267.081 324.328 267.081 323.664ZM272.493 323.688C272.493 323.232 272.397 322.836 272.205 322.5C272.021 322.164 271.777 321.908 271.473 321.732C271.169 321.556 270.841 321.468 270.489 321.468C270.137 321.468 269.809 321.556 269.505 321.732C269.201 321.9 268.953 322.152 268.761 322.488C268.577 322.816 268.485 323.208 268.485 323.664C268.485 324.12 268.577 324.52 268.761 324.864C268.953 325.208 269.201 325.472 269.505 325.656C269.817 325.832 270.145 325.92 270.489 325.92C270.841 325.92 271.169 325.832 271.473 325.656C271.777 325.48 272.021 325.224 272.205 324.888C272.397 324.544 272.493 324.144 272.493 323.688ZM281.658 320.388V327H280.29V326.22C280.074 326.492 279.79 326.708 279.438 326.868C279.094 327.02 278.726 327.096 278.334 327.096C277.814 327.096 277.346 326.988 276.93 326.772C276.522 326.556 276.198 326.236 275.958 325.812C275.726 325.388 275.61 324.876 275.61 324.276V320.388H276.966V324.072C276.966 324.664 277.114 325.12 277.41 325.44C277.706 325.752 278.11 325.908 278.622 325.908C279.134 325.908 279.538 325.752 279.834 325.44C280.138 325.12 280.29 324.664 280.29 324.072V320.388H281.658ZM284.831 318.12V327H283.463V318.12H284.831ZM292.687 323.532C292.687 323.78 292.671 324.004 292.639 324.204H287.587C287.627 324.732 287.823 325.156 288.175 325.476C288.527 325.796 288.959 325.956 289.471 325.956C290.207 325.956 290.727 325.648 291.031 325.032H292.507C292.307 325.64 291.943 326.14 291.415 326.532C290.895 326.916 290.247 327.108 289.471 327.108C288.839 327.108 288.271 326.968 287.767 326.688C287.271 326.4 286.879 326 286.591 325.488C286.311 324.968 286.171 324.368 286.171 323.688C286.171 323.008 286.307 322.412 286.579 321.9C286.859 321.38 287.247 320.98 287.743 320.7C288.247 320.42 288.823 320.28 289.471 320.28C290.095 320.28 290.651 320.416 291.139 320.688C291.627 320.96 292.007 321.344 292.279 321.84C292.551 322.328 292.687 322.892 292.687 323.532ZM291.259 323.1C291.251 322.596 291.071 322.192 290.719 321.888C290.367 321.584 289.931 321.432 289.411 321.432C288.939 321.432 288.535 321.584 288.199 321.888C287.863 322.184 287.663 322.588 287.599 323.1H291.259ZM299.922 321.504H298.698V327H297.318V321.504H296.538V320.388H297.318V319.92C297.318 319.16 297.518 318.608 297.918 318.264C298.326 317.912 298.962 317.736 299.826 317.736V318.876C299.41 318.876 299.118 318.956 298.95 319.116C298.782 319.268 298.698 319.536 298.698 319.92V320.388H299.922V321.504ZM304.002 327.108C303.378 327.108 302.814 326.968 302.31 326.688C301.806 326.4 301.41 326 301.122 325.488C300.834 324.968 300.69 324.368 300.69 323.688C300.69 323.016 300.838 322.42 301.134 321.9C301.43 321.38 301.834 320.98 302.346 320.7C302.858 320.42 303.43 320.28 304.062 320.28C304.694 320.28 305.266 320.42 305.778 320.7C306.29 320.98 306.694 321.38 306.99 321.9C307.286 322.42 307.434 323.016 307.434 323.688C307.434 324.36 307.282 324.956 306.978 325.476C306.674 325.996 306.258 326.4 305.73 326.688C305.21 326.968 304.634 327.108 304.002 327.108ZM304.002 325.92C304.354 325.92 304.682 325.836 304.986 325.668C305.298 325.5 305.55 325.248 305.742 324.912C305.934 324.576 306.03 324.168 306.03 323.688C306.03 323.208 305.938 322.804 305.754 322.476C305.57 322.14 305.326 321.888 305.022 321.72C304.718 321.552 304.39 321.468 304.038 321.468C303.686 321.468 303.358 321.552 303.054 321.72C302.758 321.888 302.522 322.14 302.346 322.476C302.17 322.804 302.082 323.208 302.082 323.688C302.082 324.4 302.262 324.952 302.622 325.344C302.99 325.728 303.45 325.92 304.002 325.92ZM310.155 321.348C310.355 321.012 310.619 320.752 310.947 320.568C311.283 320.376 311.679 320.28 312.135 320.28V321.696H311.787C311.251 321.696 310.843 321.832 310.563 322.104C310.291 322.376 310.155 322.848 310.155 323.52V327H308.787V320.388H310.155V321.348ZM317.877 318.12V327H316.509V318.12H317.877ZM319.217 323.664C319.217 323 319.353 322.412 319.625 321.9C319.905 321.388 320.281 320.992 320.753 320.712C321.233 320.424 321.761 320.28 322.337 320.28C322.857 320.28 323.309 320.384 323.693 320.592C324.085 320.792 324.397 321.044 324.629 321.348V320.388H326.009V327H324.629V326.016C324.397 326.328 324.081 326.588 323.681 326.796C323.281 327.004 322.825 327.108 322.313 327.108C321.745 327.108 321.225 326.964 320.753 326.676C320.281 326.38 319.905 325.972 319.625 325.452C319.353 324.924 319.217 324.328 319.217 323.664ZM324.629 323.688C324.629 323.232 324.533 322.836 324.341 322.5C324.157 322.164 323.913 321.908 323.609 321.732C323.305 321.556 322.977 321.468 322.625 321.468C322.273 321.468 321.945 321.556 321.641 321.732C321.337 321.9 321.089 322.152 320.897 322.488C320.713 322.816 320.621 323.208 320.621 323.664C320.621 324.12 320.713 324.52 320.897 324.864C321.089 325.208 321.337 325.472 321.641 325.656C321.953 325.832 322.281 325.92 322.625 325.92C322.977 325.92 323.305 325.832 323.609 325.656C323.913 325.48 324.157 325.224 324.341 324.888C324.533 324.544 324.629 324.144 324.629 323.688ZM329.402 321.504V325.164C329.402 325.412 329.458 325.592 329.57 325.704C329.69 325.808 329.89 325.86 330.17 325.86H331.01V327H329.93C329.314 327 328.842 326.856 328.514 326.568C328.186 326.28 328.022 325.812 328.022 325.164V321.504H327.242V320.388H328.022V318.744H329.402V320.388H331.01V321.504H329.402ZM338.331 323.532C338.331 323.78 338.315 324.004 338.283 324.204H333.231C333.271 324.732 333.467 325.156 333.819 325.476C334.171 325.796 334.603 325.956 335.115 325.956C335.851 325.956 336.371 325.648 336.675 325.032H338.151C337.951 325.64 337.587 326.14 337.059 326.532C336.539 326.916 335.891 327.108 335.115 327.108C334.483 327.108 333.915 326.968 333.411 326.688C332.915 326.4 332.523 326 332.235 325.488C331.955 324.968 331.815 324.368 331.815 323.688C331.815 323.008 331.951 322.412 332.223 321.9C332.503 321.38 332.891 320.98 333.387 320.7C333.891 320.42 334.467 320.28 335.115 320.28C335.739 320.28 336.295 320.416 336.783 320.688C337.271 320.96 337.651 321.344 337.923 321.84C338.195 322.328 338.331 322.892 338.331 323.532ZM336.903 323.1C336.895 322.596 336.715 322.192 336.363 321.888C336.011 321.584 335.575 321.432 335.055 321.432C334.583 321.432 334.179 321.584 333.843 321.888C333.507 322.184 333.307 322.588 333.243 323.1H336.903ZM341.045 321.348C341.245 321.012 341.509 320.752 341.837 320.568C342.173 320.376 342.569 320.28 343.025 320.28V321.696H342.677C342.141 321.696 341.733 321.832 341.453 322.104C341.181 322.376 341.045 322.848 341.045 323.52V327H339.677V320.388H341.045V321.348Z" fill="#5E41A7"/>
<path d="M424.646 208.584C421.938 203.738 418.758 199.311 415.039 195.18C413.136 193.066 409.309 195.726 410.934 198.166C412.208 200.08 413.482 201.995 414.755 203.909C405.481 200.45 395.473 198.085 385.913 199.318C385.879 199.276 385.848 199.23 385.813 199.188C376.148 187.537 357.738 187.597 345.986 195.825C331.941 205.657 321.196 240.446 330.464 256.487C331.046 257.496 332.651 256.892 332.374 255.744C328.782 240.836 334.087 212.738 345.602 202.342C354.671 194.154 371.073 191.719 380.297 200.499C377.412 201.351 374.591 202.585 371.872 204.296C366.416 207.727 361.245 213.719 361.989 220.58C362.736 227.454 369.595 231.497 376.153 230.787C389.646 229.328 393.446 214.743 388.78 204.061C397.046 203.522 405.687 205.803 413.582 208.834C411.001 209.384 408.452 210.081 405.917 210.962C402.803 212.043 404.033 217.032 407.17 215.938C412.005 214.254 416.826 213.148 421.938 212.689C422.616 212.629 423.285 212.301 423.786 211.826C424.834 211.206 425.418 209.964 424.646 208.584ZM378.257 225.084C373.669 226.877 367.016 225.124 366.957 219.234C366.916 215.106 370.428 211.336 373.596 209.156C376.774 206.968 380.161 205.568 383.663 204.781C387.693 211.745 386.548 221.844 378.257 225.084Z" fill="#5E41A7" stroke="white" stroke-width="2"/>
<defs>
<filter id="filter0_d_117_395" x="187" y="81" width="206" height="274" filterUnits="userSpaceOnUse" color-interpolation-filters="sRGB">
<feFlood flood-opacity="0" result="BackgroundImageFix"/>
<feColorMatrix in="SourceAlpha" type="matrix" values="0 0 0 0 0 0 0 0 0 0 0 0 0 0 0 0 0 0 127 0" result="hardAlpha"/>
<feOffset/>
<feGaussianBlur stdDeviation="1.5"/>
<feColorMatrix type="matrix" values="0 0 0 0 0 0 0 0 0 0 0 0 0 0 0 0 0 0 0.14 0"/>
<feBlend mode="normal" in2="BackgroundImageFix" result="effect1_dropShadow_117_395"/>
<feBlend mode="normal" in="SourceGraphic" in2="effect1_dropShadow_117_395" result="shape"/>
</filter>
<clipPath id="clip0_117_395">
<path d="M428 113C428 110.239 430.239 108 433 108H613V366C613 378.703 602.703 389 590 389H428V113Z" fill="white"/>
</clipPath>
<clipPath id="clip1_117_395">
<rect width="60" height="79" fill="white" transform="translate(536 141)"/>
</clipPath>
</defs>
</svg>
