<svg width="48" height="48" viewBox="0 0 48 48" fill="none" xmlns="http://www.w3.org/2000/svg">
<circle opacity="0.5" cx="24" cy="24" r="24" fill="#BAA2EF"/>
<path d="M18.0085 12C17.7073 12 17.4631 12.2621 17.4631 12.5854V17.561C17.4631 17.8843 17.7073 18.1464 18.0085 18.1464C18.3098 18.1464 18.554 17.8843 18.554 17.561V12.5854C18.554 12.2621 18.3098 12 18.0085 12ZM30.0085 12C29.7073 12 29.4631 12.2621 29.4631 12.5854V17.561C29.4631 17.8843 29.7073 18.1464 30.0085 18.1464C30.3098 18.1464 30.554 17.8843 30.554 17.561V12.5854C30.554 12.2621 30.3098 12 30.0085 12ZM14.1903 13.7561C12.9778 13.7561 12 14.8055 12 16.1067V21.3659H36V16.1067C36 14.8055 35.0221 13.7561 33.8096 13.7561H32.1818H31.0994V16.2531C31.4339 16.5746 31.6449 17.0411 31.6449 17.561C31.6449 18.5309 30.9122 19.3171 30.0085 19.3171C29.1048 19.3171 28.3721 18.5309 28.3721 17.561C28.3721 17.0411 28.5831 16.5746 28.9176 16.2531V13.7561H19.0909V16.2439C19.4306 16.5657 19.6449 17.0365 19.6449 17.561C19.6449 18.5309 18.9122 19.3171 18.0085 19.3171C17.1048 19.3171 16.3721 18.5309 16.3721 17.561C16.3721 17.0457 16.5797 16.5834 16.9091 16.2622V13.7561H14.1903ZM12 22.5366V33.6494C12 34.9506 12.9778 36 14.1903 36H33.8096C35.0221 36 36 34.9506 36 33.6494V22.5366H12Z" fill="#3B1B82"/>
<rect x="15.6007" y="25.1996" width="2.4" height="2.4" fill="#D8CCF3"/>
<rect x="15.6007" y="30" width="2.4" height="2.4" fill="#D8CCF3"/>
<rect x="20.3993" y="25.1996" width="2.4" height="2.4" fill="#D8CCF3"/>
<rect x="20.3993" y="30" width="2.4" height="2.4" fill="#D8CCF3"/>
<rect x="25.1996" y="25.1996" width="2.4" height="2.4" fill="#D8CCF3"/>
<rect x="25.1996" y="30" width="2.4" height="2.4" fill="#D8CCF3"/>
<rect x="30" y="25.1996" width="2.4" height="2.4" fill="#D8CCF3"/>
<rect x="30" y="30" width="2.4" height="2.4" fill="#D8CCF3"/>
</svg>
