<svg width="24" height="34" viewBox="0 0 24 34" fill="none" xmlns="http://www.w3.org/2000/svg">
<g opacity="0.76">
<path d="M21.4425 16.3561H21.27C20.8897 16.3561 20.5285 16.4377 20.2039 16.5839C19.9548 15.46 18.9294 14.6156 17.7056 14.6156H17.5327C17.0963 14.6156 16.6856 14.7229 16.3258 14.9118C15.939 14.0131 15.0281 13.3803 13.9686 13.3803H13.7957C13.438 13.3803 13.0968 13.4524 12.7877 13.5828V10.0097C12.7877 8.63304 11.6412 7.51367 10.2317 7.51367H10.0588C8.6497 7.51367 7.50322 8.63342 7.50322 10.0097V19.1751L6.34087 20.0368C5.41486 20.7232 4.82808 21.7221 4.68806 22.849C4.54803 23.9763 4.87334 25.0832 5.60478 25.9661L9.23223 30.3461V32.087C9.23223 33.1414 10.1107 33.9997 11.1902 33.9997H20.2457C21.3253 33.9997 22.2041 33.1417 22.2041 32.087L22.2045 30.4342C23.3633 29.0114 23.9989 27.2464 23.9989 25.4316V18.8521C23.9981 17.4758 22.852 16.3561 21.4425 16.3561ZM22.4509 25.4312C22.4509 26.9808 21.8792 28.4867 20.8422 29.6714C20.7219 29.8082 20.6565 29.9823 20.6565 30.1625V32.087C20.6565 32.3083 20.472 32.4885 20.2453 32.4885H11.1902C10.964 32.4885 10.7794 32.3083 10.7794 32.087V30.0787C10.7794 29.9056 10.7187 29.7379 10.6073 29.6034L6.80774 25.0156C6.34203 24.4535 6.1347 23.7485 6.22405 23.0307C6.31302 22.3133 6.68706 21.6771 7.27655 21.24L7.50322 21.0723V23.1482C7.50322 23.5653 7.84979 23.9038 8.27682 23.9038C8.70386 23.9038 9.05043 23.5653 9.05043 23.1482V19.557C9.05043 19.5517 9.05043 19.5472 9.05043 19.5419V10.0093C9.05043 9.46606 9.50261 9.02443 10.0588 9.02443H10.2317C10.788 9.02443 11.2401 9.46643 11.2401 10.0093V15.8763C11.2401 15.8763 11.2401 15.8763 11.2401 15.8767C11.2401 15.877 11.2401 15.8767 11.2401 15.877L11.244 20.7569C11.2444 21.1739 11.5906 21.5117 12.0176 21.5117H12.018C12.445 21.5113 12.7912 21.1732 12.7908 20.7554L12.7873 15.8763C12.7873 15.333 13.2395 14.8914 13.7954 14.8914H13.9683C14.5245 14.8914 14.9767 15.3334 14.9767 15.8763V17.1116V17.112V17.1124L14.9801 20.7569C14.9805 21.1739 15.3267 21.5117 15.7537 21.5117C15.7541 21.5117 15.7541 21.5117 15.7545 21.5117C16.1816 21.5113 16.5277 21.1728 16.5274 20.7554L16.5239 17.1113C16.5239 16.568 16.976 16.1264 17.5319 16.1264H17.7048C18.261 16.1264 18.7132 16.5684 18.7132 17.1113V18.6556C18.7109 18.6806 18.7054 18.7047 18.7054 18.7301L18.7093 20.7572C18.7101 21.1743 19.0563 21.5113 19.4829 21.5113C19.4833 21.5113 19.4837 21.5113 19.4845 21.5113C19.9115 21.5105 20.2573 21.1717 20.2565 20.7542L20.2531 18.9212C20.2554 18.8978 20.2604 18.8755 20.2604 18.8517C20.2604 18.3084 20.713 17.8668 21.2688 17.8668H21.4413C21.9975 17.8668 22.4497 18.3088 22.4497 18.8517V25.4312H22.4509Z" fill="#5F6FBF"/>
<path d="M18.2932 8.12676H14.4803C14.1354 8.12676 13.8555 7.76975 13.8555 7.32986C13.8555 6.88997 14.1354 6.53296 14.4803 6.53296H18.2932C18.6381 6.53296 18.9181 6.88997 18.9181 7.32986C18.9181 7.76975 18.6384 8.12676 18.2932 8.12676Z" fill="#5F6FBF"/>
<path d="M10.1328 4.7814C9.66707 4.7814 9.28906 4.51702 9.28906 4.19125V0.590151C9.28906 0.264388 9.66707 0 10.1328 0C10.5986 0 10.9766 0.264388 10.9766 0.590151V4.19125C10.9766 4.51731 10.599 4.7814 10.1328 4.7814Z" fill="#5F6FBF"/>
<path d="M14.0344 5.38194C13.8976 5.38194 13.761 5.33272 13.6565 5.23403C13.4478 5.0369 13.4478 4.71735 13.6565 4.52022L15.9628 2.34218C16.1715 2.14505 16.5098 2.14505 16.7185 2.34218C16.9272 2.53932 16.9272 2.85886 16.7185 3.056L14.4123 5.23403C14.3078 5.33272 14.171 5.38194 14.0344 5.38194Z" fill="#5F6FBF"/>
<path d="M4.43775 8.12676H0.624859C0.279937 8.12676 0 7.76975 0 7.32986C0 6.88997 0.279937 6.53296 0.624859 6.53296H4.43775C4.78267 6.53296 5.06261 6.88997 5.06261 7.32986C5.06261 7.76975 4.78267 8.12676 4.43775 8.12676Z" fill="#5F6FBF"/>
<path d="M6.21562 5.38194C6.07878 5.38194 5.94195 5.33272 5.83772 5.23403L3.53155 3.056C3.32282 2.85886 3.32282 2.53932 3.53155 2.34218C3.74001 2.14505 4.07889 2.14505 4.28735 2.34218L6.59352 4.52022C6.80225 4.71735 6.80225 5.0369 6.59352 5.23403C6.48929 5.33272 6.35246 5.38194 6.21562 5.38194Z" fill="#5F6FBF"/>
</g>
</svg>
