<svg width="48" height="48" viewBox="0 0 48 48" fill="none" xmlns="http://www.w3.org/2000/svg">
<circle opacity="0.5" cx="24" cy="24" r="24" fill="#DD7BC7"/>
<path d="M26.941 12.4177C26.8026 12.3418 26.6458 12.307 26.4887 12.3173C26.3315 12.3276 26.1805 12.3826 26.0529 12.476C25.9254 12.5694 25.8266 12.6973 25.7678 12.8451C25.7091 12.9928 25.6928 13.1544 25.7209 13.3111L25.7263 13.3458L25.7291 13.3637L26.1919 16.3957C26.2231 16.6002 26.3256 16.7866 26.4807 16.9214C26.6359 17.0561 26.8337 17.1303 27.0382 17.1305C27.0822 17.1305 27.1261 17.1271 27.1696 17.1204C27.3943 17.0854 27.596 16.9615 27.7304 16.7761C27.8647 16.5906 27.9208 16.3588 27.8862 16.1316L27.6296 14.4523C29.5881 15.1925 31.2756 16.5213 32.4655 18.26C33.6554 19.9988 34.2905 22.0642 34.2857 24.1788C34.2872 25.1859 34.1408 26.1876 33.8513 27.1512C33.7851 27.3712 33.8081 27.6088 33.9151 27.8117C34.0222 28.0146 34.2046 28.1662 34.4221 28.2331C34.6397 28.3 34.8746 28.2768 35.0752 28.1685C35.2758 28.0602 35.4257 27.8758 35.4918 27.6557C35.8301 26.5285 36.0014 25.3568 35.9999 24.1788C36.0065 21.4765 35.1179 18.8499 33.4759 16.7182C31.8339 14.5864 29.5332 13.0724 26.941 12.4177Z" fill="#590547"/>
<path d="M18.8569 24.1788C18.8569 25.2075 19.1586 26.2132 19.7237 27.0686C20.2888 27.9239 21.092 28.5906 22.0317 28.9843C22.9714 29.378 24.0055 29.481 25.0031 29.2803C26.0007 29.0796 26.9171 28.5842 27.6363 27.8568C28.3556 27.1293 28.8454 26.2025 29.0438 25.1935C29.2422 24.1845 29.1404 23.1387 28.7511 22.1883C28.3619 21.2378 27.7027 20.4254 26.857 19.8539C26.0112 19.2824 25.0169 18.9773 23.9998 18.9773C22.6363 18.9788 21.329 19.5273 20.3649 20.5024C19.4007 21.4776 18.8584 22.7997 18.8569 24.1788Z" fill="#590547"/>
<path d="M32.8959 31.6124C32.89 31.5963 32.8917 31.5785 32.8847 31.5626C32.8388 31.4579 32.7729 31.3634 32.6907 31.2847L32.6886 31.2818C32.6606 31.2614 32.6312 31.2429 32.6008 31.2264C32.5433 31.1767 32.4794 31.1353 32.4107 31.1031L29.5338 29.9738C29.4288 29.9325 29.3169 29.9126 29.2043 29.9151C29.0917 29.9176 28.9807 29.9426 28.8776 29.9885C28.7745 30.0344 28.6814 30.1004 28.6036 30.1827C28.5257 30.265 28.4646 30.362 28.4239 30.4682C28.3831 30.5743 28.3634 30.6876 28.3659 30.8015C28.3683 30.9153 28.393 31.0276 28.4384 31.1318C28.4838 31.2361 28.549 31.3303 28.6304 31.409C28.7118 31.4878 28.8077 31.5495 28.9126 31.5908L30.5104 32.218C28.5009 33.8907 25.9378 34.7282 23.3405 34.5608C20.7432 34.3934 18.306 33.2336 16.5227 31.3164C16.3649 31.1567 16.1518 31.0655 15.9286 31.0622C15.7055 31.0589 15.4898 31.1438 15.3276 31.2989C15.1653 31.4539 15.0693 31.6668 15.0598 31.8924C15.0504 32.1179 15.1284 32.3383 15.2771 32.5067C16.3976 33.7094 17.7494 34.6676 19.2495 35.3226C20.7495 35.9776 22.3661 36.3155 24 36.3155C25.6339 36.3155 27.2505 35.9776 28.7506 35.3226C30.2507 34.6676 31.6025 33.7094 32.723 32.5067C32.7289 32.5003 32.7304 32.4917 32.7362 32.4852C32.8058 32.4093 32.8611 32.3212 32.8995 32.2252L32.9007 32.2185C32.9698 32.022 32.9681 31.8071 32.8959 31.6117V31.6124Z" fill="#590547"/>
<path d="M16.2364 26.112C16.3258 26.0413 16.4005 25.9534 16.456 25.8532C16.5115 25.7531 16.5469 25.6428 16.5599 25.5288C16.573 25.4147 16.5635 25.2992 16.5321 25.1889C16.5006 25.0786 16.4478 24.9757 16.3767 24.8861C16.3056 24.7966 16.2177 24.7223 16.1179 24.6675C16.0182 24.6126 15.9087 24.5783 15.7958 24.5667C15.6829 24.555 15.5688 24.5661 15.4601 24.5993C15.3515 24.6326 15.2504 24.6874 15.1629 24.7604L13.8492 25.8282C13.4291 23.2343 13.9986 20.5759 15.4424 18.3905C16.8863 16.205 19.0967 14.6556 21.6269 14.0555C21.7384 14.0311 21.8438 13.9844 21.9372 13.9183C22.0306 13.8521 22.11 13.7678 22.1707 13.6702C22.2315 13.5726 22.2724 13.4637 22.291 13.35C22.3096 13.2362 22.3056 13.1198 22.2793 13.0076C22.2529 12.8955 22.2046 12.7897 22.1373 12.6966C22.07 12.6035 21.9851 12.525 21.8874 12.4655C21.7897 12.406 21.6812 12.3669 21.5684 12.3503C21.4556 12.3338 21.3406 12.3402 21.2302 12.3691C18.5987 12.9931 16.2537 14.5003 14.5775 16.6449C12.9013 18.7895 11.9928 21.4451 12 24.1788C12.0008 25.2865 12.154 26.3887 12.4554 27.4537C12.4621 27.6276 12.5217 27.7952 12.6262 27.9335C12.6679 27.9748 12.7138 28.0115 12.7633 28.0428C12.7966 28.074 12.8322 28.1024 12.87 28.1278C12.9072 28.1512 12.9463 28.1715 12.9869 28.1885C13.0938 28.2398 13.2103 28.2678 13.3286 28.2707C13.4131 28.2707 13.4971 28.2582 13.578 28.2335C13.7342 28.1809 13.8716 28.0827 13.9728 27.9514L16.2364 26.112Z" fill="#590547"/>
</svg>
