<svg width="32" height="24" viewBox="0 0 32 24" fill="none" xmlns="http://www.w3.org/2000/svg">
<g opacity="0.76">
<path d="M2.64536 2.71218C2.64536 1.96276 3.17302 1.42746 3.91173 1.42746H25.5807C26.3195 1.42746 26.9175 1.96276 26.9175 2.71218V7.85104H28.3246V2.71218C28.3246 1.21334 27.0582 0 25.5807 0H3.91173C2.4343 0 1.23828 1.17766 1.23828 2.71218V12.4903H2.64536V2.71218Z" fill="#5F6FBF"/>
<path d="M20.9259 20.3978V18.7324H7.38281V20.3978H13.9808V22.0632H10.9943C10.6123 22.0632 10.3345 22.4379 10.3345 22.8959C10.3345 23.3538 10.6471 23.7285 10.9943 23.7285H18.2173C18.5993 23.7285 18.8771 23.3538 18.8771 22.8959C18.8771 22.4379 18.5646 22.0632 18.2173 22.0632H15.3698V20.3978H20.9259Z" fill="#5F6FBF"/>
<path d="M32.0002 9.20949C32.0002 8.60941 31.5131 8.11523 30.9216 8.11523H22.2925C21.701 8.11523 21.2139 8.60941 21.2139 9.20949V22.9054C21.2139 23.5054 21.701 23.9996 22.2925 23.9996H30.9216C31.5131 23.9996 32.0002 23.5054 32.0002 22.9054V9.20949ZM26.6418 23.329C26.5026 23.329 26.3635 23.2231 26.3635 23.0466C26.3635 22.9054 26.4679 22.7642 26.6418 22.7642C26.781 22.7642 26.9202 22.8701 26.9202 23.0466C26.9202 23.1878 26.781 23.329 26.6418 23.329ZM22.2577 21.8817V9.52718H30.852V21.8817H22.2577Z" fill="#5F6FBF"/>
<path d="M7.38717 13.1577C7.38717 12.7713 7.05474 12.4902 6.68538 12.4902H0.701781C0.332422 12.4902 0 12.8064 0 13.1577V23.064C0 23.4153 0.332422 23.7315 0.701781 23.7315H6.68538C7.09168 23.7315 7.38717 23.4153 7.38717 23.064V13.1577ZM3.61971 23.1343C3.47197 23.1343 3.32422 23.0289 3.32422 22.8533C3.32422 22.7128 3.43503 22.5722 3.61971 22.5722C3.80439 22.5722 3.9152 22.6776 3.9152 22.8533C3.9152 23.0289 3.80439 23.1343 3.61971 23.1343ZM6.64845 21.9751H0.738716V13.5441H6.64845V21.9751Z" fill="#5F6FBF"/>
</g>
</svg>
