<svg width="32" height="32" viewBox="0 0 32 32" fill="none" xmlns="http://www.w3.org/2000/svg">
<circle cx="16" cy="16" r="16" fill="#F1F1F1"/>
<path d="M21.504 20.5003V20.4998H21.5068V16.4657C21.5068 14.4923 21.0819 12.972 18.7748 12.972C17.6657 12.972 16.9214 13.5807 16.6175 14.1577H16.5855V13.1563H14.3979V20.4998H16.6758V16.8636C16.6758 15.9061 16.8572 14.9804 18.0429 14.9804C19.2111 14.9804 19.2285 16.073 19.2285 16.925V20.5003H21.504Z" fill="#5F6FBF"/>
<path d="M10.6875 13.1555H12.9681V20.499H10.6875V13.1555Z" fill="#5F6FBF"/>
<path d="M11.8208 9.5C11.0917 9.5 10.5 10.0917 10.5 10.8208C10.5 11.55 11.0917 12.1541 11.8208 12.1541C12.55 12.1541 13.1417 11.55 13.1417 10.8208C13.1412 10.0917 12.5496 9.5 11.8208 9.5V9.5Z" fill="#5F6FBF"/>
</svg>
