<svg width="139" height="33" viewBox="0 0 139 33" fill="none" xmlns="http://www.w3.org/2000/svg">
<rect y="5" width="20" height="20" rx="5" fill="white"/>
<path d="M4.89453 21.1092V8.90448C4.89453 8.55295 5.27592 8.33398 5.5795 8.51122L16.2094 14.717C16.513 14.8943 16.5098 15.3341 16.2037 15.5069L5.57372 21.5058C5.27016 21.6771 4.89453 21.4578 4.89453 21.1092Z" fill="#0D012C"/>
<rect x="7.55469" y="6.77734" width="1.33333" height="14.2222" fill="white"/>
<rect x="11.1061" y="10.332" width="1.33293" height="9.77484" fill="white"/>
<path d="M44.992 22.752C42.896 23.872 40.552 24.432 37.96 24.432C36.648 24.432 35.44 24.224 34.336 23.808C33.248 23.376 32.304 22.776 31.504 22.008C30.72 21.224 30.104 20.288 29.656 19.2C29.208 18.112 28.984 16.904 28.984 15.576C28.984 14.216 29.208 12.984 29.656 11.88C30.104 10.76 30.72 9.808 31.504 9.024C32.304 8.24 33.248 7.64 34.336 7.224C35.44 6.792 36.648 6.576 37.96 6.576C39.256 6.576 40.472 6.736 41.608 7.056C42.744 7.36 43.76 7.912 44.656 8.712L42.424 10.968C41.88 10.44 41.216 10.032 40.432 9.744C39.664 9.456 38.848 9.312 37.984 9.312C37.104 9.312 36.304 9.472 35.584 9.792C34.88 10.096 34.272 10.528 33.76 11.088C33.248 11.632 32.848 12.272 32.56 13.008C32.288 13.744 32.152 14.536 32.152 15.384C32.152 16.296 32.288 17.136 32.56 17.904C32.848 18.672 33.248 19.336 33.76 19.896C34.272 20.456 34.88 20.896 35.584 21.216C36.304 21.536 37.104 21.696 37.984 21.696C38.752 21.696 39.472 21.624 40.144 21.48C40.832 21.336 41.44 21.112 41.968 20.808V16.8H38.488V14.064H44.992V22.752ZM58.8237 24H56.0877V22.152H56.0397C55.7677 22.728 55.3517 23.232 54.7917 23.664C54.2317 24.08 53.4717 24.288 52.5117 24.288C51.7437 24.288 51.0877 24.168 50.5437 23.928C50.0157 23.672 49.5837 23.336 49.2477 22.92C48.9117 22.488 48.6717 22 48.5277 21.456C48.3837 20.912 48.3117 20.344 48.3117 19.752V12.48H51.1917V18.312C51.1917 18.632 51.2077 18.992 51.2397 19.392C51.2717 19.776 51.3517 20.144 51.4797 20.496C51.6237 20.832 51.8317 21.12 52.1037 21.36C52.3917 21.584 52.7917 21.696 53.3037 21.696C53.7837 21.696 54.1837 21.616 54.5037 21.456C54.8397 21.296 55.1117 21.08 55.3197 20.808C55.5437 20.536 55.7037 20.224 55.7997 19.872C55.8957 19.52 55.9437 19.152 55.9437 18.768V12.48H58.8237V24ZM61.9729 12.48H64.7089V14.28H64.7569C65.0129 13.736 65.4209 13.256 65.9809 12.84C66.5569 12.408 67.3249 12.192 68.2849 12.192C70.0929 12.192 71.2929 12.904 71.8849 14.328C72.3009 13.592 72.8209 13.056 73.4449 12.72C74.0689 12.368 74.8129 12.192 75.6769 12.192C76.4449 12.192 77.0929 12.32 77.6209 12.576C78.1489 12.832 78.5729 13.184 78.8929 13.632C79.2289 14.08 79.4689 14.608 79.6129 15.216C79.7569 15.808 79.8289 16.448 79.8289 17.136V24H76.9489V17.472C76.9489 17.12 76.9169 16.784 76.8529 16.464C76.7889 16.128 76.6769 15.84 76.5169 15.6C76.3569 15.344 76.1409 15.144 75.8689 15C75.5969 14.856 75.2449 14.784 74.8129 14.784C74.3649 14.784 73.9809 14.872 73.6609 15.048C73.3569 15.208 73.1009 15.432 72.8929 15.72C72.7009 15.992 72.5569 16.312 72.4609 16.68C72.3809 17.032 72.3409 17.392 72.3409 17.76V24H69.4609V17.136C69.4609 16.416 69.3089 15.848 69.0049 15.432C68.7009 15 68.1969 14.784 67.4929 14.784C67.0129 14.784 66.6049 14.864 66.2689 15.024C65.9489 15.184 65.6769 15.4 65.4529 15.672C65.2449 15.944 65.0929 16.256 64.9969 16.608C64.9009 16.96 64.8529 17.328 64.8529 17.712V24H61.9729V12.48ZM89.1198 15.672C88.5598 14.888 87.8078 14.496 86.8638 14.496C86.4798 14.496 86.1038 14.592 85.7358 14.784C85.3678 14.976 85.1838 15.288 85.1838 15.72C85.1838 16.072 85.3358 16.328 85.6398 16.488C85.9438 16.648 86.3278 16.784 86.7918 16.896C87.2558 17.008 87.7518 17.128 88.2798 17.256C88.8238 17.368 89.3278 17.552 89.7918 17.808C90.2558 18.048 90.6398 18.384 90.9438 18.816C91.2478 19.248 91.3998 19.84 91.3998 20.592C91.3998 21.28 91.2478 21.864 90.9438 22.344C90.6558 22.808 90.2718 23.184 89.7918 23.472C89.3278 23.76 88.7998 23.968 88.2078 24.096C87.6158 24.224 87.0238 24.288 86.4318 24.288C85.5358 24.288 84.7118 24.16 83.9598 23.904C83.2078 23.648 82.5358 23.184 81.9438 22.512L83.8638 20.712C84.2318 21.128 84.6238 21.472 85.0398 21.744C85.4718 22 85.9918 22.128 86.5998 22.128C86.8078 22.128 87.0238 22.104 87.2478 22.056C87.4718 22.008 87.6798 21.928 87.8718 21.816C88.0638 21.704 88.2158 21.568 88.3278 21.408C88.4558 21.232 88.5198 21.032 88.5198 20.808C88.5198 20.408 88.3678 20.112 88.0638 19.92C87.7598 19.728 87.3758 19.576 86.9118 19.464C86.4478 19.336 85.9438 19.224 85.3998 19.128C84.8718 19.016 84.3758 18.848 83.9118 18.624C83.4478 18.384 83.0638 18.056 82.7598 17.64C82.4558 17.224 82.3038 16.648 82.3038 15.912C82.3038 15.272 82.4318 14.72 82.6878 14.256C82.9598 13.776 83.3118 13.384 83.7438 13.08C84.1758 12.776 84.6718 12.552 85.2318 12.408C85.7918 12.264 86.3598 12.192 86.9358 12.192C87.7038 12.192 88.4638 12.328 89.2158 12.6C89.9678 12.856 90.5758 13.304 91.0398 13.944L89.1198 15.672ZM92.2958 14.928V12.48H94.6718V9.144H97.5518V12.48H100.72V14.928H97.5518V19.968C97.5518 20.544 97.6558 21 97.8638 21.336C98.0878 21.672 98.5198 21.84 99.1598 21.84C99.4158 21.84 99.6958 21.816 99.9998 21.768C100.304 21.704 100.544 21.608 100.72 21.48V23.904C100.416 24.048 100.04 24.144 99.5918 24.192C99.1598 24.256 98.7758 24.288 98.4398 24.288C97.6718 24.288 97.0398 24.2 96.5438 24.024C96.0638 23.864 95.6798 23.616 95.3918 23.28C95.1198 22.928 94.9278 22.496 94.8158 21.984C94.7198 21.472 94.6718 20.88 94.6718 20.208V14.928H92.2958ZM110.168 22.416H110.096C109.68 23.072 109.152 23.552 108.512 23.856C107.872 24.144 107.168 24.288 106.4 24.288C105.872 24.288 105.352 24.216 104.84 24.072C104.344 23.928 103.896 23.712 103.496 23.424C103.112 23.136 102.8 22.776 102.56 22.344C102.32 21.912 102.2 21.408 102.2 20.832C102.2 20.208 102.312 19.68 102.536 19.248C102.76 18.8 103.056 18.432 103.424 18.144C103.808 17.84 104.248 17.6 104.744 17.424C105.24 17.248 105.752 17.12 106.28 17.04C106.824 16.944 107.368 16.888 107.912 16.872C108.456 16.84 108.968 16.824 109.448 16.824H110.168V16.512C110.168 15.792 109.92 15.256 109.424 14.904C108.928 14.536 108.296 14.352 107.528 14.352C106.92 14.352 106.352 14.464 105.824 14.688C105.296 14.896 104.84 15.184 104.456 15.552L102.944 14.04C103.584 13.384 104.328 12.912 105.176 12.624C106.04 12.336 106.928 12.192 107.84 12.192C108.656 12.192 109.344 12.288 109.904 12.48C110.464 12.656 110.928 12.888 111.296 13.176C111.664 13.464 111.944 13.8 112.136 14.184C112.344 14.552 112.488 14.928 112.568 15.312C112.664 15.696 112.72 16.072 112.736 16.44C112.752 16.792 112.76 17.104 112.76 17.376V24H110.168V22.416ZM110 18.84H109.4C109 18.84 108.552 18.856 108.056 18.888C107.56 18.92 107.088 19 106.64 19.128C106.208 19.24 105.84 19.416 105.536 19.656C105.232 19.88 105.08 20.2 105.08 20.616C105.08 20.888 105.136 21.12 105.248 21.312C105.376 21.488 105.536 21.64 105.728 21.768C105.92 21.896 106.136 21.992 106.376 22.056C106.616 22.104 106.856 22.128 107.096 22.128C108.088 22.128 108.816 21.896 109.28 21.432C109.76 20.952 110 20.304 110 19.488V18.84ZM123.731 15.936C123.395 15.584 123.043 15.304 122.675 15.096C122.307 14.888 121.931 14.784 121.547 14.784C121.019 14.784 120.547 14.88 120.131 15.072C119.715 15.264 119.355 15.52 119.051 15.84C118.763 16.16 118.539 16.528 118.379 16.944C118.235 17.36 118.163 17.792 118.163 18.24C118.163 18.688 118.235 19.12 118.379 19.536C118.539 19.952 118.763 20.32 119.051 20.64C119.355 20.96 119.715 21.216 120.131 21.408C120.547 21.6 121.019 21.696 121.547 21.696C121.995 21.696 122.411 21.608 122.795 21.432C123.179 21.24 123.507 20.968 123.779 20.616L125.699 22.68C125.411 22.968 125.075 23.216 124.691 23.424C124.323 23.632 123.947 23.8 123.563 23.928C123.179 24.056 122.811 24.144 122.459 24.192C122.107 24.256 121.803 24.288 121.547 24.288C120.683 24.288 119.867 24.144 119.099 23.856C118.331 23.568 117.667 23.16 117.107 22.632C116.547 22.104 116.099 21.472 115.763 20.736C115.443 19.984 115.283 19.152 115.283 18.24C115.283 17.328 115.443 16.504 115.763 15.768C116.099 15.016 116.547 14.376 117.107 13.848C117.667 13.32 118.331 12.912 119.099 12.624C119.867 12.336 120.683 12.192 121.547 12.192C122.283 12.192 123.019 12.336 123.755 12.624C124.507 12.896 125.163 13.336 125.723 13.944L123.731 15.936ZM127.437 5.856H130.317V17.256L134.757 12.48H138.453L133.509 17.712L138.765 24H134.949L130.365 18.12H130.317V24H127.437V5.856Z" fill="white"/>
</svg>
