<svg width="24" height="27" viewBox="0 0 24 27" fill="none" xmlns="http://www.w3.org/2000/svg">
<path opacity="0.76" d="M12.6489 19.1731V2.03846C12.6489 1.46154 11.9574 1 11.0532 1C10.2021 1 9.45745 1.46154 9.45745 2.03846V19.1731L3.71277 12.9423C3.07447 12.25 2.11702 12.25 1.47872 12.9423C0.840426 13.6346 0.840426 14.6731 1.47872 15.3654L9.88298 24.4808C10.5213 25.1731 11.4787 25.1731 12.117 24.4808L20.5213 15.3654C21.1596 14.6731 21.1596 13.6346 20.5213 12.9423C19.883 12.25 18.9255 12.25 18.2872 12.9423L12.6489 19.1731Z" fill="#5F6FBF" stroke="white"/>
<path opacity="0.5" d="M23 2L1 26" stroke="#C01B1B"/>
<path opacity="0.5" d="M1 2L23 26" stroke="#C01B1B"/>
</svg>
