<svg width="48" height="48" viewBox="0 0 48 48" fill="none" xmlns="http://www.w3.org/2000/svg">
<circle opacity="0.5" cx="24" cy="24" r="24" fill="#F8CB88"/>
<path d="M17.2522 18.4983C17.2264 18.5495 17.2006 18.6007 17.1748 18.6518C17.1232 18.7798 17.0716 18.8821 17.02 19.01C16.9942 19.1123 16.9425 19.1891 16.9167 19.2914C16.8909 19.3682 16.8651 19.4194 16.8393 19.4961C16.7877 19.6496 16.7619 19.7775 16.7103 19.931C16.7103 19.9822 16.6845 20.0078 16.6845 20.059C16.6587 20.1869 16.6329 20.3404 16.6071 20.4683C16.6071 20.4939 16.5812 20.545 16.5812 20.5706C16.5554 20.7241 16.5296 20.9032 16.5296 21.0823C16.5296 21.1079 16.5296 21.1591 16.5296 21.1846C16.5038 21.3637 16.5038 21.5428 16.5038 21.7219V25.4828C16.5038 26.1991 16.3232 26.8899 15.9619 27.5039L14.3619 30.3437C14.1296 30.7786 14.1296 31.3159 14.3877 31.7508C14.6458 32.1858 15.1103 32.4416 15.6264 32.4416H20.9425C21.2006 33.8999 22.4651 35 23.9877 35C25.5103 35 26.8006 33.8999 27.0329 32.4416H32.349C32.8393 32.4416 33.3297 32.1858 33.5877 31.7508C33.8458 31.3159 33.8458 30.7786 33.6135 30.3437L32.0135 27.5039C31.678 26.8899 31.4716 26.1735 31.4716 25.4828V21.8754C31.4716 21.6963 31.4716 21.5172 31.4458 21.3382C31.4458 21.287 31.4458 21.2358 31.4458 21.1846C31.42 21.0311 31.42 20.8776 31.3942 20.7241C31.3942 20.6474 31.3684 20.5706 31.3426 20.4939C31.3167 20.4171 31.3168 20.3404 31.2909 20.2636C31.2135 19.931 31.1361 19.5984 31.0071 19.2914V19.2659C30.6716 18.3448 30.1555 17.5006 29.4845 16.7586C29.4587 16.733 29.4329 16.7075 29.4071 16.6819C29.3296 16.6051 29.2522 16.5284 29.1748 16.4516C29.149 16.426 29.1232 16.4004 29.0974 16.3749C28.9684 16.2469 28.8393 16.1446 28.7103 16.0423C28.6329 15.9911 28.5813 15.9399 28.5038 15.8888C28.4522 15.8376 28.4006 15.812 28.349 15.7608C28.22 15.6585 28.0909 15.5818 27.9361 15.4794C27.9103 15.4794 27.8845 15.4538 27.8845 15.4538C27.3942 15.1468 26.8522 14.891 26.3103 14.7119V14.3026C26.3103 13.0234 25.278 12 23.9877 12C22.6974 12 21.6651 13.0234 21.6651 14.3026V14.6607C21.5877 14.6863 21.5103 14.7119 21.4329 14.7375C21.3813 14.7631 21.3296 14.7631 21.278 14.7887C19.4974 15.505 18.078 16.8354 17.2522 18.4983ZM23.9877 32.9789C23.6006 32.9789 23.2909 32.7742 23.1103 32.4672H24.8909C24.6845 32.7742 24.3748 32.9789 23.9877 32.9789ZM23.7296 14.3026C23.7296 14.1746 23.8587 14.0467 23.9877 14.0467C24.1167 14.0467 24.2458 14.1746 24.2458 14.3026C24.1167 14.3026 23.9877 14.3026 23.8329 14.3026C23.8071 14.3026 23.7555 14.3026 23.7296 14.3026Z" fill="#8F5600"/>
<path d="M31.8595 15.2037C31.3434 14.6698 30.7757 14.1625 30.1563 13.7354L29.3047 15.0702C29.8208 15.444 30.3111 15.8444 30.7498 16.2982C31.524 17.1258 32.1434 18.1136 32.5821 19.2348L34.0015 18.6208C33.4595 17.3394 32.7369 16.1648 31.8595 15.2037Z" fill="#8F5600"/>
<path d="M15.4194 19.2348C16.1161 17.4996 17.2516 16.058 18.6968 15.0702L17.8452 13.7354C16.1677 14.8833 14.8258 16.5919 14 18.6208L15.4194 19.2348Z" fill="#8F5600"/>
</svg>
