<svg width="48" height="48" viewBox="0 0 48 48" fill="none" xmlns="http://www.w3.org/2000/svg">
<circle opacity="0.5" cx="24" cy="24" r="24" fill="#7BDDC3"/>
<path d="M24 12C21.6266 12 19.3066 12.7038 17.3332 14.0224C15.3598 15.3409 13.8217 17.2151 12.9135 19.4078C12.0052 21.6005 11.7676 24.0133 12.2306 26.3411C12.6936 28.6689 13.8365 30.8071 15.5147 32.4853C17.193 34.1635 19.3312 35.3064 21.6589 35.7694C23.9867 36.2324 26.3995 35.9948 28.5922 35.0866C30.7849 34.1783 32.6591 32.6402 33.9776 30.6668C35.2962 28.6935 36 26.3734 36 24C36 20.8174 34.7357 17.7652 32.4853 15.5147C30.2348 13.2643 27.1826 12 24 12Z" fill="#08674E"/>
<path d="M25.56 20H22.44C21.0924 20 20 21.0924 20 22.44V25.56C20 26.9076 21.0924 28 22.44 28H25.56C26.9076 28 28 26.9076 28 25.56V22.44C28 21.0924 26.9076 20 25.56 20Z" fill="#7BDDC3"/>
</svg>
