<svg width="48" height="48" viewBox="0 0 48 48" fill="none" xmlns="http://www.w3.org/2000/svg">
<circle opacity="0.5" cx="24" cy="24" r="24" fill="#F49199"/>
<path d="M36 14.5714C36 15.08 35.8492 15.5772 35.5668 16C35.2843 16.4229 34.8828 16.7525 34.4131 16.9471C33.9434 17.1417 33.4265 17.1927 32.9278 17.0934C32.4292 16.9942 31.9711 16.7493 31.6116 16.3897C31.2521 16.0301 31.0073 15.5719 30.9081 15.0731C30.8089 14.5743 30.8598 14.0573 31.0544 13.5874C31.2489 13.1175 31.5784 12.7159 32.0012 12.4334C32.4239 12.1508 32.9209 12 33.4293 12C34.1111 12 34.765 12.2709 35.2471 12.7532C35.7292 13.2354 36 13.8894 36 14.5714ZM27.0027 23.1429H21.0045C19.9818 23.1429 19.0011 22.7365 18.2779 22.0131C17.5548 21.2898 17.1485 20.3087 17.1485 19.2857C17.1485 18.2627 17.5548 17.2817 18.2779 16.5583C19.0011 15.8349 19.9818 15.4286 21.0045 15.4286H26.5743L26.2229 15.78L27.4311 16.9971L29.8561 14.5714L27.4311 12.1457L26.2229 13.3629L26.5743 13.7143H21.0045C19.5273 13.7143 18.1106 14.3013 17.0661 15.3461C16.0216 16.391 15.4348 17.8081 15.4348 19.2857C15.4348 20.7633 16.0216 22.1805 17.0661 23.2253C18.1106 24.2702 19.5273 24.8571 21.0045 24.8571H27.0027C28.0254 24.8571 29.0062 25.2635 29.7293 25.9869C30.4524 26.7102 30.8587 27.6913 30.8587 28.7143C30.8587 29.7373 30.4524 30.7183 29.7293 31.4417C29.0062 32.165 28.0254 32.5714 27.0027 32.5714H16.9943C16.7922 31.9995 16.3944 31.5175 15.8714 31.2106C15.3483 30.9037 14.7336 30.7916 14.136 30.8942C13.5383 30.9967 12.9961 31.3074 12.6052 31.7711C12.2144 32.2349 12 32.822 12 33.4286C12 34.0352 12.2144 34.6222 12.6052 35.086C12.9961 35.5498 13.5383 35.8604 14.136 35.963C14.7336 36.0655 15.3483 35.9535 15.8714 35.6465C16.3944 35.3396 16.7922 34.8576 16.9943 34.2857H27.0027C28.4799 34.2857 29.8966 33.6987 30.9411 32.6539C31.9856 31.609 32.5725 30.1919 32.5725 28.7143C32.5725 27.2366 31.9856 25.8195 30.9411 24.7747C29.8966 23.7298 28.4799 23.1429 27.0027 23.1429Z" fill="#60060D" stroke="#60060D" stroke-width="0.5"/>
</svg>
