<svg width="32" height="32" viewBox="0 0 32 32" fill="none" xmlns="http://www.w3.org/2000/svg">
<circle cx="16" cy="16" r="16" fill="#F1F1F1"/>
<path d="M22.5 11.8022C21.998 12.0231 21.463 12.1695 20.9053 12.2405C21.4791 11.897 21.917 11.3572 22.1228 10.7065C21.5879 11.0263 20.9973 11.2522 20.3678 11.3783C19.8599 10.8359 19.136 10.5 18.3462 10.5C16.814 10.5 15.5804 11.7472 15.5804 13.2762C15.5804 13.4962 15.599 13.7078 15.6445 13.9092C13.3436 13.7966 11.3077 12.6907 9.93994 11.006C9.70116 11.4215 9.56109 11.897 9.56109 12.4089C9.56109 13.3702 10.0547 14.2222 10.7904 14.7155C10.3458 14.7071 9.90956 14.5776 9.54 14.3737C9.54 14.3822 9.54 14.3932 9.54 14.4042C9.54 15.7529 10.4993 16.8732 11.7574 17.1313C11.5321 17.1931 11.2866 17.2227 11.0317 17.2227C10.8546 17.2227 10.6757 17.2125 10.5078 17.1753C10.8664 18.2745 11.8839 19.0825 13.0939 19.1088C12.1523 19.8475 10.9567 20.2925 9.66234 20.2925C9.43538 20.2925 9.21769 20.2824 9 20.2545C10.226 21.0473 11.6789 21.5 13.2458 21.5C18.3386 21.5 21.123 17.2692 21.123 13.602C21.123 13.4793 21.1188 13.3608 21.1129 13.2432C21.6622 12.8523 22.1237 12.3641 22.5 11.8022Z" fill="#5F6FBF"/>
</svg>
